<?xml version="1.0"?>
<svg xmlns="http://www.w3.org/2000/svg" xmlns:xlink="http://www.w3.org/1999/xlink" xmlns:svgjs="http://svgjs.com/svgjs" version="1.1" width="512" height="512" x="0" y="0" viewBox="0 0 512 512" style="enable-background:new 0 0 512 512" xml:space="preserve" class=""><g><g xmlns="http://www.w3.org/2000/svg"><path d="m470.06 213.897c0 39.98-11.09 80.449-32.95 120.298-17.2 31.336-41.08 62.363-70.98 92.21-50.54 50.442-100.44 79.919-102.54 81.148l-7.59 4.447-7.59-4.447c-2.1-1.229-52-30.707-102.54-81.148-29.9-29.847-53.78-60.874-70.98-92.21-21.86-39.85-32.95-80.319-32.95-120.298 0-57.137 22.27-110.846 62.7-151.245s94.18-62.652 151.36-62.652 110.93 22.253 151.36 62.652c40.43 40.4 62.7 94.109 62.7 151.245z" fill="#cb5a5a" data-original="#57d3ad" style="" class=""/><path d="m470.06 213.897c0 39.98-11.09 80.449-32.95 120.298-17.2 31.336-41.08 62.363-70.98 92.21-50.54 50.442-100.44 79.919-102.54 81.148l-7.59 4.447v-512c57.18 0 110.93 22.253 151.36 62.652 40.43 40.4 62.7 94.109 62.7 151.245z" fill="#af0202" data-original="#02afaa" style="" class=""/><ellipse cx="256" cy="210.799" fill="#ffffff" rx="87.39" ry="87.323" data-original="#ffffff" style="" class=""/><path d="m343.39 210.799c0 48.143-39.2 87.324-87.39 87.324v-174.647c48.19 0 87.39 39.17 87.39 87.323z" fill="#f4d4d4" data-original="#d4f4ee" style="" class=""/></g></g></svg>
