<?xml version="1.0" standalone="no"?>
<!DOCTYPE svg PUBLIC "-//W3C//DTD SVG 20010904//EN"
 "http://www.w3.org/TR/2001/REC-SVG-20010904/DTD/svg10.dtd">
<svg version="1.0" xmlns="http://www.w3.org/2000/svg"
 width="690.000000pt" height="387.000000pt" viewBox="0 0 690.000000 387.000000"
 preserveAspectRatio="xMidYMid meet">

<g transform="translate(0.000000,387.000000) scale(0.100000,-0.100000)"
fill="#ffffff" stroke="none">
<path d="M2894 3669 c-32 -41 -39 -58 -39 -97 -1 -26 -4 -56 -8 -68 -6 -17 0
-26 33 -48 22 -14 40 -33 40 -41 0 -8 11 -22 24 -31 14 -8 37 -32 52 -51 l27
-36 -23 -45 -24 -44 50 -44 c99 -89 98 -87 75 -96 -12 -4 -19 -15 -18 -27 1
-17 8 -21 37 -21 19 0 42 -5 50 -11 11 -7 0 -8 -37 -4 -49 6 -53 5 -53 -13 0
-31 18 -71 49 -111 25 -32 34 -58 45 -126 1 -12 15 -24 35 -31 18 -6 45 -26
59 -44 16 -20 54 -46 98 -67 48 -22 73 -39 74 -51 4 -75 14 -110 38 -128 13
-9 12 -12 -2 -17 -21 -8 -46 14 -47 40 0 12 -2 14 -6 4 -3 -7 4 -33 17 -57 12
-25 19 -50 17 -57 -3 -7 -6 -5 -6 6 -1 9 -5 17 -11 17 -14 0 -13 -23 2 -38 10
-10 10 -17 0 -32 -15 -24 -16 -50 -2 -50 6 0 10 -8 10 -17 -1 -17 -2 -16 -15
1 -10 13 -13 40 -12 88 2 38 -1 72 -5 74 -9 6 -14 -79 -9 -182 1 -42 -2 -74
-8 -78 -5 -4 -8 -12 -5 -19 2 -7 -6 -17 -18 -22 -34 -15 -36 -58 -3 -79 16
-10 24 -23 21 -32 -3 -8 -1 -14 4 -14 6 0 10 -12 10 -28 0 -15 9 -35 20 -45
24 -20 26 -37 5 -37 -19 0 -20 -39 -1 -46 23 -9 29 -64 9 -86 -15 -17 -15 -18
14 -12 30 6 30 5 37 -45 4 -27 12 -53 18 -57 7 -5 5 -11 -6 -20 -10 -7 -16
-22 -14 -36 3 -21 8 -23 54 -23 28 0 59 -6 68 -14 8 -7 44 -16 79 -18 62 -5
63 -5 94 30 17 19 42 37 54 39 16 2 23 9 21 21 -2 9 9 28 23 42 38 39 33 50
-23 45 -33 -2 -39 27 -10 58 27 29 35 72 13 72 -7 0 -15 -7 -19 -15 -7 -20
-36 -8 -36 16 0 10 7 19 15 19 8 0 15 7 15 15 0 21 -31 19 -37 -3 -7 -27 -61
-48 -85 -33 -16 10 -22 9 -32 -5 -14 -19 -36 -12 -36 12 0 8 -4 14 -10 14 -5
0 -10 -4 -10 -10 0 -5 -7 -10 -15 -10 -19 0 -20 26 -1 37 8 4 17 22 21 38 5
21 4 26 -3 16 -6 -8 -17 -11 -26 -8 -20 8 -21 37 -2 37 13 0 26 20 26 40 0 4
-9 6 -20 3 -14 -4 -20 0 -20 11 0 9 4 16 9 16 11 0 24 50 16 58 -3 4 -10 0
-16 -8 -7 -12 -10 -11 -15 8 -4 12 -13 22 -20 22 -8 0 -14 7 -14 15 0 8 -7 15
-15 15 -17 0 -20 26 -4 35 6 4 13 -2 16 -14 3 -12 13 -21 24 -21 11 0 22 0 26
-1 21 -2 10 21 -16 37 -32 19 -41 36 -18 33 26 -3 37 2 37 16 0 8 -9 15 -19
15 -24 0 -56 59 -41 74 14 14 12 26 -4 26 -7 0 -19 7 -26 15 -10 12 -9 16 5
21 11 5 21 1 27 -9 11 -21 38 -22 38 -2 0 7 6 18 13 22 8 4 17 16 20 26 4 10
11 16 16 12 21 -12 20 16 0 36 -20 20 -21 23 -6 34 10 7 17 17 17 24 0 6 7 11
15 11 8 0 15 -7 15 -15 0 -8 -7 -15 -15 -15 -8 0 -15 -9 -15 -20 0 -11 7 -20
15 -20 8 0 15 9 15 20 0 11 5 20 10 20 19 0 52 42 47 60 -6 24 17 43 68 58 39
12 75 47 79 79 1 8 15 30 30 49 15 19 24 39 20 46 -4 6 -3 8 4 4 6 -3 13 -2
17 4 3 5 1 10 -6 10 -8 0 -5 9 8 23 29 33 97 146 115 192 9 23 19 61 23 87 l7
46 56 11 c30 6 68 11 83 11 23 0 29 6 41 41 12 36 19 43 63 58 53 19 52 16 43
91 -3 22 3 27 47 41 55 18 57 25 19 74 -15 20 -27 52 -31 84 -3 28 -8 51 -10
51 -19 0 -156 -85 -213 -131 -81 -66 -170 -100 -170 -64 0 24 -19 17 -26 -9
-4 -16 -11 -23 -20 -19 -17 6 -18 35 -2 51 10 10 10 15 -1 21 -14 9 -51 -19
-51 -39 0 -5 -19 -3 -41 5 -56 20 -61 19 -57 -12 2 -16 7 -26 12 -25 5 2 12
-2 16 -8 9 -15 30 -4 30 16 0 19 19 18 26 -1 4 -9 14 -13 23 -11 9 3 23 1 31
-4 13 -9 12 -12 -5 -21 -11 -6 -57 -49 -102 -95 -71 -72 -83 -89 -83 -118 0
-29 -5 -36 -29 -44 -16 -6 -35 -21 -42 -34 -15 -29 -28 -38 -57 -38 -29 0 -38
24 -22 55 11 20 11 27 -1 42 -12 15 -12 16 3 10 28 -10 31 10 7 52 -17 31 -28
40 -55 43 -67 8 -89 -25 -72 -106 6 -31 15 -56 19 -56 13 0 11 -37 -1 -45 -18
-11 -70 6 -70 22 0 9 -18 33 -39 53 -22 21 -47 53 -56 71 -10 19 -30 44 -46
57 -19 16 -35 44 -49 89 -26 84 -26 103 1 103 11 0 18 4 15 9 -3 4 -17 6 -32
3 -20 -4 -25 -1 -22 9 3 8 20 14 40 15 25 1 35 -3 32 -11 -3 -7 4 -15 15 -18
12 -3 21 -12 21 -21 0 -9 3 -16 8 -16 4 0 7 20 6 45 -1 38 1 45 17 45 11 0 19
5 19 11 0 6 -9 8 -20 4 -11 -4 -40 -8 -65 -10 -35 -3 -43 -1 -38 11 6 15 -5
18 -31 8 -15 -6 -15 -8 1 -19 17 -13 17 -14 1 -20 -13 -5 -33 7 -70 43 -29 28
-62 59 -73 69 -12 10 -31 32 -44 48 -13 17 -21 23 -18 13 9 -25 -4 -30 -26
-11 -10 10 -22 17 -25 15 -4 -2 -8 2 -11 9 -2 7 1 9 9 4 10 -6 12 -4 7 8 -3
10 -2 17 3 17 19 0 10 19 -19 39 l-29 21 -38 -51z m105 -116 c-9 -10 -6 -13
14 -13 16 0 31 -8 37 -20 9 -17 8 -20 -10 -20 -12 0 -20 7 -21 18 -1 16 -2 16
-6 0 -4 -17 -5 -17 -22 0 -10 9 -21 29 -25 44 -6 27 -5 27 19 16 19 -9 22 -14
14 -25z m53 13 c4 -21 3 -23 -13 -13 -13 8 -15 15 -7 24 14 17 15 17 20 -11z
m-47 -111 c16 -13 27 -26 24 -29 -3 -3 -20 8 -38 24 -39 36 -28 39 14 5z m70
-45 c3 -5 -1 -10 -10 -10 -9 0 -13 5 -10 10 3 6 8 10 10 10 2 0 7 -4 10 -10z
m1199 -16 c22 -8 20 -27 -4 -42 -16 -10 -20 -10 -20 2 0 8 6 17 13 19 9 4 8 8
-3 16 -17 12 -10 14 14 5z m-1174 -19 c0 -8 -4 -15 -9 -15 -5 0 -11 7 -15 15
-3 9 0 15 9 15 8 0 15 -7 15 -15z m1120 -40 c-7 -9 -15 -13 -17 -11 -7 7 7 26
19 26 6 0 6 -6 -2 -15z m-1105 -54 c10 -25 -6 -27 -26 -2 -10 13 -19 27 -19
32 0 13 38 -13 45 -30z m1115 -40 c-8 -5 -24 -11 -35 -13 -11 -1 -24 -7 -28
-13 -5 -6 -7 -4 -4 5 2 8 17 18 33 21 43 10 51 9 34 0z m-1080 -32 c0 -6 -4
-7 -10 -4 -5 3 -10 11 -10 16 0 6 5 7 10 4 6 -3 10 -11 10 -16z m25 -19 c3 -5
1 -10 -4 -10 -6 0 -11 5 -11 10 0 6 2 10 4 10 3 0 8 -4 11 -10z m970 -30 c-27
-12 -35 -12 -35 0 0 6 12 10 28 9 24 0 25 -1 7 -9z m-866 -76 c11 -10 -9 -10
-64 2 l-60 13 60 -6 c33 -2 62 -7 64 -9z m421 -574 c0 -5 -4 -10 -10 -10 -5 0
-10 5 -10 10 0 6 5 10 10 10 6 0 10 -4 10 -10z m-184 -47 c-10 -10 -19 5 -10
18 6 11 8 11 12 0 2 -7 1 -15 -2 -18z m54 -18 c0 -8 9 -15 20 -15 11 0 20 -7
20 -15 0 -8 -7 -15 -15 -15 -9 0 -15 -9 -15 -24 0 -19 -4 -23 -20 -19 -11 3
-20 12 -20 20 0 7 -7 13 -16 11 -10 -2 -19 3 -21 10 -6 15 19 16 34 1 6 -6 16
-8 22 -5 16 10 13 36 -4 36 -8 0 -15 7 -15 15 0 8 7 15 15 15 8 0 15 -7 15
-15z m-95 -164 c3 -5 1 -12 -5 -16 -5 -3 -10 1 -10 9 0 18 6 21 15 7z m35 -42
c0 -5 -7 -9 -15 -9 -15 0 -20 12 -9 23 8 8 24 -1 24 -14z m30 -35 c0 -8 -4
-12 -10 -9 -5 3 -10 10 -10 16 0 5 5 9 10 9 6 0 10 -7 10 -16z m-96 -25 c12
-24 13 -35 4 -49 -9 -14 -9 -22 1 -34 7 -8 10 -20 6 -26 -4 -7 -13 -1 -22 16
-12 24 -12 32 -1 53 10 19 10 25 1 28 -7 3 -13 13 -13 24 0 27 6 24 24 -12z
m36 22 c0 -6 -4 -13 -10 -16 -5 -3 -10 1 -10 9 0 9 5 16 10 16 6 0 10 -4 10
-9z m30 -36 c0 -8 -4 -15 -10 -15 -5 0 -10 7 -10 15 0 8 5 15 10 15 6 0 10 -7
10 -15z m-30 -39 c0 -8 -4 -18 -10 -21 -5 -3 -10 3 -10 14 0 12 5 21 10 21 6
0 10 -6 10 -14z m30 -41 c0 -8 -4 -15 -10 -15 -5 0 -10 7 -10 15 0 8 5 15 10
15 6 0 10 -7 10 -15z m40 -29 c0 -7 9 -16 21 -19 24 -6 21 -30 -4 -35 -10 -2
-17 3 -17 12 0 23 -27 20 -33 -4 -3 -11 -10 -20 -16 -20 -6 0 -11 9 -11 20 0
11 7 20 15 20 8 0 15 9 15 20 0 11 7 20 15 20 8 0 15 -6 15 -14z m-70 -11 c0
-8 -4 -15 -10 -15 -5 0 -10 7 -10 15 0 8 5 15 10 15 6 0 10 -7 10 -15z m-20
-40 c0 -8 -2 -15 -4 -15 -2 0 -6 7 -10 15 -3 8 -1 15 4 15 6 0 10 -7 10 -15z
m90 -30 c0 -8 9 -15 20 -15 11 0 20 -6 20 -14 0 -25 -19 -28 -32 -6 -7 11 -18
20 -25 20 -7 0 -13 7 -13 15 0 8 7 15 15 15 8 0 15 -7 15 -15z m-77 -30 c-10
-13 -20 -18 -22 -12 -2 6 1 13 8 15 6 2 11 10 11 18 0 9 5 12 10 9 6 -4 3 -15
-7 -30z m47 -10 c0 -8 -7 -15 -15 -15 -8 0 -15 7 -15 15 0 8 7 15 15 15 8 0
15 -7 15 -15z m40 -35 c0 -11 7 -20 15 -20 8 0 15 -7 15 -15 0 -9 -7 -18 -15
-21 -8 -4 -15 -13 -15 -21 0 -17 -22 -13 -28 5 -2 7 3 12 12 12 9 0 16 8 16
20 0 11 -6 20 -14 20 -18 0 -29 16 -21 30 11 18 35 11 35 -10z m-70 -5 c0 -8
-4 -15 -10 -15 -5 0 -10 7 -10 15 0 8 5 15 10 15 6 0 10 -7 10 -15z m26 -52
c-11 -11 -19 6 -11 24 8 17 8 17 12 0 3 -10 2 -21 -1 -24z m84 -58 c0 -8 -7
-15 -15 -15 -8 0 -15 7 -15 15 0 8 7 15 15 15 8 0 15 -7 15 -15z m-70 -4 c0
-6 -4 -13 -10 -16 -5 -3 -10 1 -10 9 0 9 5 16 10 16 6 0 10 -4 10 -9z m280
-106 c15 -18 13 -20 -17 -29 -24 -8 -28 0 -17 28 8 20 18 20 34 1z m-100 -56
c0 -9 -8 -19 -17 -22 -10 -4 -36 -13 -58 -21 -37 -14 -41 -14 -59 4 -19 19
-19 19 10 30 16 6 39 15 51 21 11 6 26 9 31 5 5 -3 13 2 16 11 6 15 8 15 16 3
6 -8 10 -22 10 -31z m30 -4 c0 -5 -5 -3 -10 5 -5 8 -10 20 -10 25 0 6 5 3 10
-5 5 -8 10 -19 10 -25z"/>
<path d="M3570 3512 c0 -4 -14 -13 -31 -21 -26 -11 -36 -11 -51 -2 -16 10 -23
9 -37 -3 -10 -9 -24 -16 -32 -16 -12 0 -11 -2 1 -10 13 -9 13 -11 0 -20 -8 -6
-25 -8 -37 -5 -20 5 -21 2 -14 -17 5 -13 20 -25 37 -29 16 -4 38 -10 49 -14
11 -4 16 -3 10 2 -5 4 -11 15 -13 24 -2 14 5 16 45 11 43 -5 47 -3 35 10 -7 9
-24 19 -38 22 -32 8 -21 26 17 26 19 0 29 -5 29 -15 0 -18 36 -20 43 -2 3 8 7
5 12 -7 6 -13 3 -23 -7 -30 -22 -16 -10 -36 20 -36 23 1 25 2 9 11 -25 15 -12
29 28 27 22 -1 35 -7 38 -17 2 -9 16 -17 32 -19 15 -1 33 -6 39 -10 32 -25 42
-20 41 19 0 27 -5 39 -15 41 -8 1 -22 2 -30 4 -8 1 -19 2 -25 3 -5 1 5 9 24
19 44 22 48 35 16 52 -22 12 -28 12 -34 1 -7 -11 -10 -11 -15 0 -3 8 -4 3 -2
-9 7 -39 -3 -53 -33 -46 -14 4 -35 15 -47 25 -11 11 -26 19 -32 19 -7 0 -12 5
-12 10 0 6 -4 10 -10 10 -5 0 -10 -3 -10 -8z"/>
<path d="M3872 3328 c-17 -11 -30 -24 -26 -29 9 -16 22 -10 44 21 12 17 20 30
18 29 -2 0 -18 -10 -36 -21z"/>
<path d="M3780 3280 c0 -5 7 -10 16 -10 8 0 12 5 9 10 -3 6 -10 10 -16 10 -5
0 -9 -4 -9 -10z"/>
<path d="M3740 2476 c0 -9 -7 -16 -15 -16 -8 0 -15 -7 -15 -15 0 -8 -7 -15
-15 -15 -8 0 -15 -7 -15 -15 0 -9 -7 -18 -15 -21 -8 -4 -15 -12 -15 -20 0 -8
-7 -14 -15 -14 -8 0 -15 -9 -15 -20 0 -11 -6 -20 -14 -20 -7 0 -16 -9 -19 -20
-3 -11 -12 -20 -21 -20 -9 0 -16 -7 -16 -15 0 -22 31 -18 37 5 3 11 9 20 14
20 4 0 13 -9 19 -20 13 -23 40 -27 40 -5 0 8 -9 15 -20 15 -13 0 -20 7 -20 20
0 11 7 20 15 20 8 0 15 9 15 20 0 11 7 20 15 20 8 0 15 7 15 15 0 8 6 15 14
15 20 0 29 -30 11 -36 -20 -8 -19 -34 0 -34 8 0 15 7 15 15 0 8 5 15 10 15 6
0 10 9 10 20 0 11 5 20 10 20 6 0 10 7 10 15 0 8 -4 15 -10 15 -5 0 -10 -7
-10 -15 0 -8 -7 -15 -15 -15 -8 0 -15 9 -15 20 0 11 6 20 13 20 15 0 38 48 26
56 -5 3 -9 -2 -9 -10z"/>
<path d="M3770 2365 c0 -8 -4 -15 -10 -15 -5 0 -10 -5 -10 -11 0 -7 -7 -17
-15 -23 -9 -7 -11 -16 -7 -24 7 -10 13 -9 29 5 23 20 41 83 24 83 -6 0 -11 -7
-11 -15z"/>
<path d="M2342 2305 c0 -16 2 -22 5 -12 2 9 2 23 0 30 -3 6 -5 -1 -5 -18z"/>
<path d="M3660 2306 c0 -9 7 -16 16 -16 17 0 14 22 -4 28 -7 2 -12 -3 -12 -12z"/>
<path d="M3773 2285 c-17 -19 -16 -42 2 -49 8 -3 15 0 15 7 0 7 3 22 6 35 7
25 -5 28 -23 7z"/>
<path d="M3697 2259 c-3 -13 -10 -18 -17 -14 -8 5 -11 1 -8 -10 5 -26 28 -31
28 -6 0 13 6 21 16 21 9 0 14 5 12 12 -7 21 -25 19 -31 -3z"/>
<path d="M632 2258 c-7 -7 -30 -11 -53 -9 -22 1 -47 -3 -55 -9 -10 -9 -21 -8
-46 4 -31 16 -33 16 -55 -8 -13 -14 -23 -30 -23 -36 0 -5 -12 -10 -27 -10 -14
0 -35 -7 -45 -16 -15 -14 -20 -15 -34 -4 -13 11 -17 11 -23 1 -7 -10 -13 -10
-30 -2 -15 9 -32 9 -60 1 -21 -5 -46 -7 -55 -4 -9 3 -16 2 -16 -4 0 -5 -11
-13 -25 -16 -14 -4 -25 -14 -25 -23 0 -13 -7 -10 -30 12 l-30 29 0 -67 c0 -40
4 -67 10 -67 6 0 10 -18 8 -44 -2 -24 -7 -42 -11 -39 -5 3 -7 -3 -5 -13 4 -22
62 -28 64 -6 1 6 2 26 3 44 1 29 13 33 17 5 1 -7 7 -30 13 -52 l10 -40 79 -2
79 -2 -5 46 c-4 35 -2 44 7 38 8 -4 10 -17 7 -31 -10 -37 13 -58 62 -62 33 -3
47 1 59 15 13 16 14 16 9 1 -5 -16 3 -18 75 -18 73 0 80 2 89 23 5 12 9 18 10
12 0 -5 5 -3 10 5 5 8 10 48 10 88 0 53 3 72 13 72 11 0 12 -12 6 -55 -8 -62
-2 -98 15 -92 7 3 12 -4 12 -15 -1 -12 5 -23 12 -25 8 -3 12 9 13 41 2 59 2
63 12 72 4 4 7 -18 7 -49 0 -41 4 -58 16 -65 12 -7 16 -27 16 -91 0 -45 -1
-84 -3 -86 -2 -1 -25 -6 -51 -10 l-48 -7 0 76 c0 97 -18 100 -22 4 l-3 -73
-57 3 c-32 2 -58 -1 -58 -6 0 -5 -15 -8 -32 -7 -18 1 -36 -3 -40 -9 -6 -8 -11
-6 -18 4 -8 13 -11 13 -19 1 -5 -7 -13 -11 -19 -7 -6 3 -13 2 -17 -4 -10 -16
-25 -12 -26 8 0 14 -2 14 -8 -3 -5 -11 -7 -23 -4 -28 8 -14 -29 -20 -38 -6 -5
8 -9 48 -10 89 -1 41 -4 64 -6 50 l-5 -24 -14 24 c-14 27 -15 24 -18 -52 -2
-60 -16 -76 -16 -18 0 52 -17 44 -22 -10 -2 -19 -7 -33 -13 -30 -5 3 -9 15 -7
28 2 14 -2 22 -13 22 -8 0 -15 -7 -15 -15 0 -8 -4 -15 -10 -15 -5 0 -10 14
-10 30 0 17 -4 30 -10 30 -5 0 -10 -12 -10 -26 0 -14 -4 -22 -10 -19 -5 3 -7
25 -3 50 4 29 2 45 -5 45 -6 0 -13 -8 -15 -17 -4 -17 -5 -17 -6 0 0 9 -5 17
-11 17 -5 0 -10 -8 -10 -17 0 -13 -2 -15 -8 -5 -5 7 -9 -46 -10 -118 l-2 -130
27 -6 c30 -8 551 3 626 12 43 6 47 5 47 -15 0 -23 19 -26 80 -13 19 5 60 6 90
2 l55 -6 -45 -10 c-48 -10 -62 -37 -22 -42 17 -3 22 -10 22 -32 0 -16 -5 -32
-12 -36 -8 -5 -9 -2 -5 10 8 20 -14 46 -38 46 -9 0 -19 9 -22 20 -14 52 -43 3
-43 -70 0 -37 20 -43 86 -28 49 11 54 15 54 40 0 35 25 37 34 3 4 -14 11 -25
16 -25 5 0 22 -13 36 -30 17 -18 36 -29 53 -29 27 0 75 -6 126 -15 21 -4 23
-3 7 2 -24 7 -31 27 -9 27 6 0 50 13 97 28 47 15 119 36 160 48 41 12 84 25
95 30 50 21 260 68 281 63 17 -4 26 -1 30 10 8 20 34 21 34 1 0 -12 10 -15 43
-14 41 2 99 -19 113 -42 5 -9 -4 -10 -32 -5 -36 6 -38 5 -20 -9 18 -14 17 -16
-25 -33 -24 -11 -53 -22 -63 -26 -10 -4 -17 -9 -14 -11 2 -3 50 11 106 29 56
19 102 31 102 26 0 -4 -19 -15 -41 -24 -23 -9 -39 -19 -37 -22 3 -2 17 0 32 6
33 12 46 13 46 2 0 -10 -105 -62 -125 -62 -8 0 -15 -4 -15 -8 0 -4 -20 -13
-45 -20 -25 -7 -45 -17 -45 -23 0 -5 -4 -8 -10 -4 -5 3 -17 2 -27 -3 -10 -6
-31 -15 -48 -22 -16 -7 -38 -16 -47 -21 -10 -5 -24 -9 -32 -9 -7 0 -19 -6 -25
-14 -7 -8 -27 -13 -46 -12 -19 1 -35 -3 -35 -9 0 -6 16 -9 40 -7 32 3 40 1 40
-13 0 -9 4 -13 10 -10 5 3 10 -3 10 -14 0 -12 -4 -21 -9 -21 -16 0 -17 -54 -1
-68 13 -11 13 -13 -3 -23 -9 -5 -15 -15 -11 -20 3 -6 2 -22 -2 -37 -7 -26 -8
-25 -14 13 l-7 40 -2 -47 c0 -27 2 -48 5 -48 3 0 18 9 34 20 15 11 30 17 34
13 3 -3 6 -1 6 5 0 7 7 12 15 12 12 0 15 19 15 109 0 61 4 112 9 115 13 9 19
-14 13 -53 -3 -22 0 -36 9 -42 11 -7 12 -12 2 -29 -16 -24 -17 -70 -3 -70 6 0
13 7 16 15 4 8 16 15 28 15 11 0 36 9 53 20 30 18 32 22 21 45 -14 31 -26 32
-37 2 -8 -20 -10 -16 -24 28 l-16 50 0 -62 c-1 -89 -18 -86 -23 5 -6 91 -3
105 24 96 13 -4 18 -2 14 4 -10 17 18 20 31 3 11 -14 12 -13 13 6 0 27 17 38
34 24 11 -9 15 -6 21 16 5 21 8 24 16 12 8 -12 11 -11 21 6 12 19 12 19 19 -5
l6 -25 12 28 c6 16 15 25 21 22 13 -8 13 -32 0 -37 -7 -2 -7 -14 1 -35 9 -27
8 -35 -5 -48 -8 -9 -19 -16 -23 -16 -4 0 -8 -9 -7 -19 1 -21 -11 -27 -21 -10
-11 17 -35 11 -35 -9 0 -28 17 -35 51 -21 23 10 28 17 23 34 -6 21 -6 21 9 1
12 -15 18 -17 29 -8 11 10 13 4 13 -32 -1 -54 -15 -74 -15 -22 0 21 -4 37 -10
37 -5 0 -10 -4 -10 -10 0 -5 -7 -10 -15 -10 -21 0 -34 -30 -24 -57 5 -15 4
-31 -5 -48 -13 -25 -14 -24 -12 21 0 29 -4 49 -11 51 -9 3 -12 -16 -11 -71 1
-44 -2 -75 -8 -73 -5 1 -8 30 -7 65 1 46 -2 62 -12 62 -7 0 -15 -6 -17 -12 -3
-7 -13 -13 -24 -13 -23 0 -33 -53 -12 -67 10 -7 10 -11 1 -15 -19 -7 -16 -60
3 -71 15 -8 15 -10 0 -15 -12 -5 -16 -21 -18 -64 -1 -36 -3 -45 -5 -25 -2 18
-9 30 -14 27 -5 -4 -9 0 -9 8 0 8 -7 17 -15 20 -11 5 -14 22 -12 76 2 70 -3
88 -22 76 -14 -8 -14 -58 0 -72 8 -8 8 -13 0 -17 -15 -10 -14 -63 2 -69 10 -4
10 -7 0 -18 -7 -7 -13 -28 -13 -46 0 -18 -5 -33 -10 -33 -7 0 -10 38 -9 110 3
110 0 128 -20 115 -14 -8 -14 -58 0 -72 8 -8 8 -13 0 -17 -15 -10 -14 -59 2
-75 10 -11 10 -14 0 -18 -7 -3 -13 -18 -13 -34 0 -17 -4 -28 -9 -24 -6 3 -9
51 -8 108 2 85 -1 102 -13 102 -19 0 -26 -51 -10 -70 8 -10 8 -15 0 -20 -7 -4
-10 -26 -8 -53 3 -51 -18 -72 -25 -25 -3 20 -4 16 -6 -15 0 -27 3 -41 9 -37 5
3 10 -3 10 -15 0 -12 -4 -18 -10 -15 -12 7 -12 -5 -15 -275 -2 -107 -3 -200
-4 -207 0 -6 -16 -13 -33 -15 -27 -2 -34 -8 -39 -33 -4 -16 -7 -22 -8 -13 -1
11 -6 15 -16 12 -12 -5 -15 5 -15 61 0 36 3 64 8 62 4 -3 8 34 10 81 2 92 17
191 30 204 4 4 6 -77 6 -179 l-2 -186 21 33 c14 22 17 35 10 37 -8 3 -8 14 -2
36 5 18 9 70 10 117 0 47 4 106 8 133 6 35 4 50 -5 58 -10 8 -11 17 -4 29 9
17 4 30 -11 30 -5 0 -15 -21 -22 -47 -14 -49 -39 -72 -35 -32 2 12 -3 24 -9
26 -26 9 -34 -52 -32 -232 3 -207 2 -248 -6 -292 -5 -28 -10 -33 -35 -33 -15
0 -31 6 -33 13 -3 6 -6 -5 -6 -25 l-1 -38 288 0 c194 0 292 4 299 11 8 8 13 8
17 0 5 -7 64 -11 174 -11 120 1 162 4 149 11 -10 6 -14 15 -10 22 4 7 8 26 10
44 2 30 0 31 -23 23 -18 -7 -24 -6 -24 5 0 8 -13 15 -32 17 -19 2 -32 8 -31
15 3 14 -146 6 -162 -8 -15 -15 -25 -10 -25 12 0 13 6 20 18 18 9 -1 28 0 42
1 23 1 23 2 5 10 -17 7 -16 9 9 9 16 1 26 4 23 8 -11 10 49 32 72 26 22 -6 26
4 21 56 -1 15 2 21 9 16 24 -14 51 6 51 37 0 19 4 28 12 26 15 -5 58 31 58 49
0 7 4 13 10 13 5 0 16 15 25 34 9 18 24 42 33 52 26 29 52 72 52 86 0 12 19
31 65 63 16 12 17 16 7 23 -11 7 -10 10 3 16 9 3 26 6 38 6 11 0 28 7 38 16
17 15 19 14 28 -17 l9 -34 1 32 c1 17 -4 35 -9 38 -6 4 -3 16 10 32 11 14 17
29 14 34 -3 5 -1 9 5 9 5 0 18 13 27 29 17 29 59 47 70 30 3 -5 0 -9 -5 -9 -6
0 -11 -9 -11 -20 0 -13 5 -18 15 -14 10 4 15 0 15 -12 1 -18 1 -18 14 -1 15
19 32 22 41 6 9 -13 -32 -58 -62 -70 -25 -9 -31 -44 -10 -52 9 -4 8 -8 -3 -16
-12 -8 -16 -6 -18 9 -2 11 -9 17 -17 14 -10 -4 -11 -12 -3 -35 11 -32 -6 -70
-45 -98 -14 -10 -17 -21 -13 -46 9 -46 -7 -79 -48 -103 -20 -12 -36 -27 -36
-33 0 -7 -6 -17 -14 -23 -8 -6 -17 -21 -21 -33 -5 -18 -1 -25 19 -35 28 -12
35 -38 11 -38 -21 0 -19 -38 3 -43 10 -3 6 -5 -10 -6 -23 -1 -28 -6 -28 -25 0
-27 -16 -43 -23 -24 -3 9 -11 5 -24 -12 -16 -19 -24 -22 -34 -13 -19 15 -199
37 -199 24 0 -13 49 -28 58 -19 6 6 24 6 48 -1 22 -6 51 -11 67 -11 20 0 27
-5 27 -20 0 -11 -6 -23 -14 -26 -8 -3 -12 -13 -9 -25 5 -17 2 -19 -21 -13 -17
4 -26 2 -26 -6 0 -7 -8 -10 -20 -7 -11 3 -23 1 -26 -5 -10 -15 -2 -17 44 -8
23 4 42 3 42 -2 0 -5 76 -7 172 -6 l172 3 28 65 c31 73 38 57 9 -20 l-19 -50
63 0 c41 0 65 4 68 13 4 9 6 9 6 0 1 -8 17 -13 44 -13 42 0 44 1 55 39 19 62
20 61 -78 61 -49 0 -90 3 -90 8 0 12 26 81 33 88 4 4 33 7 64 8 l58 1 9 48 c8
39 13 47 31 47 29 0 85 20 85 30 0 5 -15 4 -32 -1 -42 -12 -114 -12 -156 1
-28 7 -33 7 -28 -5 6 -17 -19 -21 -29 -5 -3 6 -1 10 5 10 6 0 15 11 20 25 10
26 26 33 32 14 3 -8 10 -6 20 5 10 9 33 16 58 16 34 0 42 4 50 25 11 29 27 31
67 11 15 -8 36 -17 46 -20 20 -6 23 -42 5 -49 -7 -2 -9 -8 -5 -13 4 -4 16 -3
26 3 15 9 23 9 37 -2 11 -8 29 -11 42 -8 12 3 22 1 22 -6 0 -5 18 -16 40 -22
22 -7 39 -17 37 -23 -6 -18 -70 -36 -84 -24 -10 8 -13 6 -13 -6 0 -8 -11 -23
-25 -32 -30 -19 -33 -44 -6 -44 17 0 19 -7 17 -50 -2 -50 1 -53 39 -51 11 0
14 -2 8 -5 -18 -8 -16 -24 2 -24 18 0 20 -16 3 -23 -21 -9 12 -27 49 -27 28 0
32 3 36 33 l4 32 1 -32 c1 -18 6 -33 11 -33 5 0 7 10 3 22 -4 19 -2 20 19 13
13 -4 39 -9 58 -10 18 -2 38 -9 42 -17 7 -11 11 -10 20 2 8 11 12 12 16 3 3
-9 34 -13 104 -13 83 0 103 3 120 18 27 26 115 25 111 0 -2 -15 5 -18 52 -18
30 0 58 4 61 10 3 5 1 10 -4 10 -20 0 -11 17 15 29 24 11 25 14 19 69 -7 55
-7 57 11 39 11 -10 27 -23 36 -30 22 -15 13 -57 -12 -57 -16 0 -30 -26 -30
-57 0 -23 28 -14 33 10 l4 22 8 -23 c7 -22 10 -22 166 -22 164 0 170 2 148 41
-5 11 -9 28 -7 37 3 11 12 1 26 -30 l22 -48 665 0 c525 0 665 3 665 13 0 19
-22 280 -25 302 -2 11 -4 48 -4 83 l-1 62 -70 0 c-48 0 -79 5 -95 16 -23 15
-25 15 -25 -1 0 -9 4 -24 9 -34 5 -9 12 -50 14 -90 3 -40 10 -78 16 -84 6 -6
38 -14 72 -18 64 -7 79 -18 79 -57 0 -28 -19 -36 -90 -37 l-55 0 -6 40 c-5 27
-17 49 -40 70 -49 44 -76 77 -60 73 12 -2 14 16 12 97 -3 103 -5 115 -22 115
-7 0 -8 -34 -5 -95 4 -64 2 -96 -5 -101 -20 -12 -29 23 -34 127 -3 56 -8 105
-11 110 -14 24 -19 1 -16 -86 2 -59 0 -95 -7 -95 -17 0 -21 16 -26 121 -3 56
-8 106 -11 110 -12 21 -22 6 -21 -34 0 -168 -17 -182 -28 -22 -7 109 -24 152
-26 68 -1 -26 -5 -61 -8 -78 -10 -39 -18 67 -28 349 -7 188 -10 210 -26 220
-11 6 -34 26 -53 44 -27 27 -37 31 -52 23 -16 -8 -18 -19 -14 -73 6 -87 21
-110 22 -33 0 66 13 102 24 68 3 -11 10 -96 15 -189 11 -194 4 -371 -13 -354
-6 6 -11 25 -12 43 -1 118 -5 157 -15 157 -6 0 -10 -16 -9 -38 4 -87 0 -126
-11 -115 -8 8 -11 44 -10 96 1 51 -2 88 -8 92 -12 7 -13 -3 -11 -86 1 -60 -7
-76 -28 -53 -7 8 -8 14 -2 14 14 0 8 152 -6 157 -8 3 -10 -14 -7 -57 6 -74 -1
-98 -22 -80 -10 8 -12 17 -6 24 8 10 8 133 0 146 -1 3 -5 -29 -8 -70 -8 -99
-27 -89 -24 12 1 43 -3 80 -8 84 -5 3 -9 -26 -9 -66 0 -52 -3 -71 -12 -68 -9
3 -12 30 -12 84 1 75 1 76 -3 12 -3 -45 -8 -68 -16 -68 -19 0 -59 48 -51 61 5
8 3 9 -5 5 -12 -8 -51 19 -51 35 0 4 10 11 22 15 20 6 20 8 5 19 -9 7 -17 20
-17 30 0 9 -9 19 -20 22 -18 5 -20 15 -22 117 -1 61 -3 120 -4 131 -1 11 -2
46 -3 78 -1 31 -5 57 -10 57 -6 0 -9 -24 -8 -52 l2 -53 -36 -3 c-44 -4 -50 7
-42 82 6 54 7 56 35 56 26 0 29 3 26 28 -3 26 -5 27 -50 24 -25 -2 -49 2 -53
8 -6 10 43 15 110 10 17 -1 87 -3 157 -5 107 -2 128 0 133 13 7 19 1 25 -30
25 -14 0 -25 3 -25 8 0 9 14 13 36 10 6 -1 17 5 23 13 10 12 5 20 -28 42 -38
25 -44 26 -86 15 -43 -11 -95 -7 -95 8 1 9 42 37 66 45 12 3 26 18 33 32 6 14
16 22 21 19 15 -9 12 -25 -5 -25 -8 0 -15 -7 -15 -16 0 -10 6 -14 14 -11 7 3
17 2 22 -3 35 -31 127 -67 97 -37 -14 14 -11 56 4 61 12 5 14 1 9 -17 -9 -37
26 -60 77 -52 54 9 61 14 47 31 -7 7 -10 19 -8 25 6 19 50 -33 44 -53 -2 -10
0 -21 5 -24 6 -3 7 -14 4 -25 -5 -13 -2 -19 10 -19 9 0 14 4 10 9 -9 15 13 23
32 12 10 -6 12 -11 6 -11 -23 0 -14 -18 17 -37 32 -19 39 -33 15 -33 -8 0 -15
5 -15 10 0 6 -13 10 -30 10 -25 0 -30 -4 -30 -24 0 -23 3 -25 56 -25 54 0 56
1 50 25 -6 22 -3 24 29 24 24 0 35 5 35 15 0 8 5 15 10 15 6 0 10 -5 10 -11 0
-7 10 -9 25 -7 14 3 25 1 25 -6 0 -8 3 -8 8 0 10 15 52 12 52 -4 0 -7 9 -22
20 -34 l20 -22 1 40 c2 30 3 32 6 12 3 -20 11 -28 26 -30 12 0 29 -1 37 -2 11
-1 16 -15 18 -47 3 -51 23 -77 63 -81 24 -3 24 -3 24 92 l0 95 -51 3 -51 3 8
47 c12 77 16 82 52 71 18 -5 93 -9 169 -9 134 0 137 0 140 -22 3 -20 10 -23
61 -26 51 -3 57 -5 57 -25 0 -22 3 -22 107 -20 66 2 112 -2 120 -9 9 -7 13 -7
13 1 0 7 10 10 25 7 21 -4 25 -1 25 19 0 18 7 25 30 30 16 4 40 3 52 -1 13 -5
46 -8 73 -9 48 0 50 1 51 28 1 15 -3 27 -7 27 -5 0 -9 3 -9 8 0 4 15 7 33 7
27 0 35 -6 49 -34 17 -33 20 -35 70 -34 29 0 40 -1 25 -4 -22 -3 -27 -8 -22
-24 4 -10 3 -24 -1 -31 -6 -9 -10 -5 -15 12 -7 24 -7 24 -8 2 -1 -12 8 -30 19
-39 11 -10 20 -23 20 -30 0 -17 15 -17 28 0 7 8 11 123 12 324 l1 311 -33 -2
c-18 -2 -45 -4 -60 -5 -23 -1 -26 -5 -21 -23 3 -13 6 -35 7 -50 0 -16 4 -28 9
-28 4 0 7 -12 7 -26 0 -14 5 -35 12 -47 14 -26 18 -55 11 -79 -7 -29 -20 -21
-27 17 l-7 35 -64 -2 c-36 -1 -68 1 -71 5 -4 3 -2 49 2 102 l10 95 -77 0 c-76
0 -77 0 -82 -27 -3 -15 -4 -43 -2 -61 l3 -34 -41 5 c-23 4 -61 9 -84 13 -42 6
-43 6 -49 -25 -4 -17 -10 -31 -15 -31 -5 0 -9 -6 -9 -14 0 -9 -7 -12 -20 -9
-25 7 -26 19 -1 26 22 5 34 54 15 61 -8 3 -14 12 -14 21 0 8 -4 15 -10 15 -5
0 -10 -17 -10 -37 0 -30 -3 -35 -11 -23 -7 10 -12 11 -15 4 -3 -8 -16 -9 -39
-4 -19 4 -37 5 -41 1 -4 -3 -4 -1 -1 6 4 6 25 14 47 18 38 6 40 9 40 41 0 36
-13 46 -24 18 -6 -14 -19 -16 -91 -11 -47 2 -88 1 -91 -4 -9 -15 -44 -10 -44
6 0 8 -4 15 -10 15 -5 0 -10 -6 -10 -14 0 -21 -30 -48 -46 -42 -8 3 -14 1 -14
-4 0 -6 -14 -10 -30 -10 -17 0 -47 -7 -67 -15 -41 -17 -83 -20 -83 -4 0 6 -25
10 -67 8 -88 -3 -113 -8 -113 -25 0 -15 -18 -18 -35 -6 -6 4 -16 26 -23 49
-18 62 -60 88 -143 90 -77 2 -185 -28 -205 -56 -16 -23 -70 -34 -146 -32 -63
3 -89 -6 -67 -20 9 -6 0 -8 -26 -8 -34 1 -36 2 -15 8 l25 8 -25 4 c-14 3 -41
1 -60 -4 -74 -19 -101 -20 -118 -4 -15 14 -19 14 -41 -4 -13 -10 -20 -20 -17
-20 3 -1 9 -2 14 -3 4 -1 28 -5 54 -10 34 -5 49 -12 53 -27 4 -12 14 -19 23
-17 16 3 52 -19 52 -33 0 -3 -19 -5 -41 -5 -51 1 -65 -21 -17 -26 29 -3 34 -7
39 -38 4 -19 7 -29 8 -22 2 18 71 16 71 -3 0 -10 10 -15 34 -15 41 0 53 -14
32 -35 -17 -18 -106 -21 -123 -4 -12 12 -52 -4 -65 -26 -4 -7 -19 -10 -33 -7
-14 2 -23 7 -21 10 3 3 -2 10 -11 17 -23 17 -10 45 18 40 27 -5 49 11 48 34 0
10 -2 12 -6 3 -7 -18 -23 -4 -23 21 0 13 -9 29 -20 37 -11 8 -20 20 -20 27 0
6 -9 14 -19 18 -11 3 -22 12 -25 20 -3 9 -19 15 -39 15 -19 0 -40 7 -48 16
-12 14 -14 14 -26 -2 -17 -24 -58 -31 -49 -8 3 8 6 19 6 24 0 5 9 10 20 12 19
3 20 4 5 26 -11 14 -26 22 -46 22 -28 0 -30 -2 -27 -32 2 -25 8 -33 21 -32 13
1 16 -3 12 -16 -3 -10 -2 -21 4 -24 5 -3 7 -14 4 -24 -4 -16 -10 -17 -53 -8
-36 7 -59 6 -89 -4 -23 -7 -41 -16 -41 -19 0 -4 -9 -7 -20 -8 -11 -1 -20 2
-20 7 0 9 -23 7 -61 -5 -10 -4 -19 -11 -19 -17 0 -13 30 -37 47 -38 6 0 24 -5
39 -10 26 -10 26 -11 8 -25 -18 -14 -18 -14 4 -15 31 0 37 3 36 18 -2 16 92
17 102 0 4 -6 2 -14 -4 -16 -23 -7 -13 -29 12 -25 30 6 45 -16 23 -32 -20 -14
-22 -51 -4 -58 6 -3 -1 -6 -18 -8 -16 -1 -34 -3 -40 -4 -5 -1 -34 -5 -62 -10
-29 -4 -58 -14 -64 -21 -9 -11 -9 -13 2 -10 8 3 57 10 109 16 52 6 108 13 123
17 26 5 28 3 25 -18 -3 -22 -8 -24 -56 -24 -57 0 -73 -20 -24 -31 15 -3 34 -8
43 -10 9 -3 19 3 23 12 4 11 17 15 44 13 20 -1 57 -1 81 0 43 1 44 1 26 21
-10 11 -14 20 -9 20 5 0 3 4 -5 9 -11 7 -9 10 9 16 14 4 25 3 30 -5 4 -7 12
-10 16 -8 5 3 17 -3 27 -14 16 -17 16 -18 -2 -18 -11 0 -23 -5 -27 -12 -4 -6
-3 -8 3 -5 12 7 23 -14 23 -43 0 -14 -11 -19 -47 -25 -27 -4 -55 -13 -65 -22
-10 -9 -18 -11 -22 -4 -10 15 -36 2 -36 -18 0 -9 -9 -24 -20 -34 -17 -14 -20
-15 -20 -1 0 8 -6 14 -12 13 -20 -2 -58 12 -59 22 -1 5 -3 14 -4 19 -1 6 -3
17 -4 25 0 8 -6 15 -12 15 -6 0 -8 -9 -4 -20 5 -16 2 -20 -15 -20 -19 0 -21
-4 -15 -32 4 -18 11 -34 16 -36 5 -2 9 -10 9 -18 0 -9 -4 -12 -10 -9 -6 4 -10
-8 -11 -27 -1 -62 -10 -11 -17 103 -6 97 -10 114 -24 117 -16 3 -18 -7 -18
-100 -1 -94 -2 -101 -16 -83 -13 17 -16 18 -24 5 -5 -8 -10 -33 -10 -55 -1
-37 -2 -38 -11 -15 -6 14 -12 45 -14 69 -2 24 -9 49 -14 54 -6 6 -11 9 -12 6
-1 -8 -11 -104 -13 -126 -2 -41 -16 -11 -18 40 -1 47 -2 48 -5 12 -2 -22 -12
-46 -21 -54 -12 -10 -14 -15 -4 -18 14 -6 16 -43 2 -43 -6 0 -10 -28 -10 -64
0 -61 -11 -89 -25 -66 -4 6 -9 44 -12 85 -5 65 -4 75 11 75 20 0 21 29 1 36
-11 5 -15 23 -15 75 0 39 -4 69 -10 69 -6 0 -10 -28 -10 -64 0 -36 -4 -68 -10
-71 -6 -4 -10 18 -10 60 0 61 -2 66 -26 75 -34 13 -52 32 -56 61 -1 13 -10 24
-18 24 -19 0 -14 -45 7 -61 14 -10 14 -11 -1 -17 -10 -4 -19 -1 -22 8 -4 8
-12 15 -19 15 -8 0 -15 14 -17 33 -2 17 -7 32 -13 32 -18 0 -17 -44 1 -63 17
-16 17 -17 -1 -20 -9 -2 -21 2 -26 10 -6 8 -9 9 -9 1 0 -6 -3 -19 -7 -29 -4
-11 -3 -15 5 -10 7 4 13 -7 18 -31 4 -21 13 -50 20 -64 14 -28 10 -41 -10 -33
-8 3 -11 -14 -8 -64 3 -53 1 -71 -12 -81 -9 -7 -16 -20 -16 -27 0 -8 -5 -14
-11 -14 -7 0 -8 21 -4 64 l7 65 -78 -4 c-44 -2 -83 -5 -89 -6 -5 -1 -22 1 -37
4 -15 3 -30 1 -34 -4 -3 -5 -14 -7 -24 -4 -14 4 -20 -1 -25 -25 -5 -21 -12
-30 -27 -30 -10 0 -26 -7 -34 -15 -33 -33 -70 0 -62 56 5 29 -6 39 -43 39 -13
0 -19 -7 -19 -22 -1 -15 -6 -8 -16 20 -10 29 -13 53 -7 70 12 41 1 167 -15
167 -8 0 -20 9 -28 19 -8 11 -14 15 -14 10 0 -14 -49 -36 -61 -28 -6 4 -6 11
2 20 9 10 9 14 0 14 -6 0 -14 -7 -17 -15 -4 -8 -10 -15 -16 -15 -17 0 3 44 30
67 24 20 28 21 44 6 14 -13 20 -13 33 -3 16 14 20 40 6 40 -5 0 -12 7 -15 16
-3 8 -2 12 4 9 6 -3 10 -2 10 3 0 6 -6 12 -14 15 -16 6 -27 55 -14 63 5 3 1
12 -9 19 -10 7 -15 17 -11 20 4 4 2 17 -5 29 -6 11 -12 29 -12 38 0 10 -4 18
-10 18 -5 0 -11 -29 -13 -64 -3 -66 -10 -75 -57 -82 -46 -6 -77 -20 -92 -40
-10 -13 -23 -24 -29 -24 -10 0 -24 -21 -24 -35 0 -2 15 -5 33 -7 30 -3 32 -6
35 -45 3 -42 4 -43 38 -43 19 0 42 -4 52 -9 60 -30 121 -48 131 -38 8 8 11 7
11 -4 0 -23 -11 -30 -27 -18 -10 9 -17 7 -31 -9 -10 -12 -27 -20 -38 -20 -16
2 -19 7 -16 27 4 22 3 24 -10 14 -10 -9 -18 -9 -25 -2 -16 16 -32 2 -26 -22 4
-16 8 -17 14 -7 6 10 11 10 20 1 14 -14 0 -38 -21 -38 -10 0 -14 -8 -12 -27 3
-30 -6 -36 -26 -16 -7 7 -12 8 -12 3 -9 -237 -14 -256 -50 -217 -12 12 -27 22
-35 22 -8 0 -15 5 -15 10 0 6 7 10 15 10 8 0 15 7 15 16 0 10 -6 14 -15 10
-10 -4 -15 1 -15 14 0 13 5 18 15 14 10 -4 15 0 15 15 0 23 -15 29 -23 9 -3
-7 -6 2 -6 21 -1 29 1 32 14 21 13 -11 15 -8 15 14 0 19 -5 26 -20 26 -18 0
-20 -7 -20 -66 0 -45 -3 -63 -11 -58 -7 4 -10 27 -7 60 l5 54 -64 -6 c-38 -3
-63 -2 -63 4 0 5 6 12 13 15 9 3 13 20 11 53 -3 46 5 77 19 75 22 -3 28 1 24
14 -4 8 -2 17 3 20 6 4 10 -3 10 -14 0 -14 6 -21 20 -21 16 0 20 7 20 35 0 24
-5 35 -15 35 -8 0 -15 -6 -15 -12 0 -9 -4 -8 -10 2 -7 12 -13 13 -28 3 -14 -8
-23 -8 -30 -1 -25 25 -30 -7 -29 -162 0 -88 -2 -163 -6 -167 -7 -6 -8 6 -12
87 0 19 -2 49 -4 65 l-3 30 -9 -32 c-5 -18 -14 -33 -19 -33 -6 0 -10 -7 -10
-15 0 -8 7 -15 15 -15 10 0 15 -10 15 -31 0 -27 -2 -30 -15 -19 -8 7 -15 9
-15 5 0 -4 7 -13 17 -20 17 -13 11 -51 -7 -40 -5 3 -10 1 -10 -4 0 -6 5 -11
10 -11 17 0 11 -17 -17 -49 -32 -36 -43 -39 -43 -11 0 11 -4 20 -9 20 -6 0
-12 61 -15 138 -2 75 -5 146 -6 156 -2 26 8 33 58 41 42 7 42 6 49 -27 l7 -33
7 35 c4 19 3 43 -3 53 -5 11 -8 32 -4 47 4 22 0 32 -17 43 -18 11 -22 26 -26
88 -5 69 -6 71 -11 29 l-6 -45 -9 43 c-4 23 -11 45 -16 48 -5 3 -6 -2 -3 -11
4 -8 3 -31 0 -50 -5 -26 -12 -35 -26 -35 -11 0 -20 3 -21 8 0 4 -2 21 -5 37
-11 86 -13 115 -7 148 3 20 9 34 14 31 4 -2 6 -11 2 -19 -3 -8 0 -15 6 -15 7
0 14 7 17 15 4 8 17 15 29 15 13 0 27 5 30 10 4 7 13 7 25 0 11 -6 32 -7 46
-4 19 5 31 2 39 -9 6 -8 24 -17 40 -19 17 -1 30 -9 29 -15 -1 -7 -2 -39 -3
-70 l-3 -58 -14 45 c-16 50 -37 76 -53 66 -19 -12 -12 -34 12 -38 21 -3 22 -7
20 -74 l-2 -72 50 -9 c42 -9 49 -8 49 6 1 9 1 78 0 154 -1 89 3 137 10 137 5
0 10 14 10 30 0 17 -4 30 -10 30 -5 0 -10 4 -10 9 0 14 81 9 87 -6 3 -6 10
-10 18 -7 7 3 15 -2 19 -12 5 -13 2 -15 -18 -10 -20 5 -23 3 -19 -14 4 -14 0
-20 -11 -20 -15 0 -20 14 -19 48 1 17 -14 15 -21 -3 -3 -8 -1 -15 4 -15 5 0 9
-10 7 -21 -3 -31 42 -36 71 -9 20 19 24 19 37 6 9 -8 22 -13 30 -10 22 9 18
24 -5 24 -11 0 -20 4 -20 9 0 18 27 30 58 25 30 -5 32 -3 32 25 0 17 -4 31
-10 31 -5 0 -10 -7 -10 -15 0 -19 -29 -20 -36 0 -3 8 -14 17 -25 20 -13 5 -18
14 -16 33 3 34 -15 42 -28 13 -5 -11 -13 -21 -17 -21 -5 0 -8 -7 -8 -16 0 -14
-7 -15 -47 -8 -105 19 -303 2 -303 -25 0 -4 -26 -7 -57 -6 -144 4 -143 4 -143
23 0 10 -3 13 -8 6 -4 -6 -17 -14 -29 -18 -13 -3 -32 -9 -43 -12 -19 -5 -20
-1 -20 85 0 83 -2 91 -19 91 -11 0 -26 7 -34 15 -8 8 -18 11 -21 7 -4 -3 -11
0 -17 8 -7 13 -10 13 -18 1 -5 -7 -14 -10 -20 -6 -8 5 -10 -1 -5 -19 5 -22 3
-26 -17 -26 -13 0 -31 5 -39 10 -13 9 -13 11 0 19 8 6 11 13 7 17 -15 16 -47
-41 -45 -81 1 -23 -2 -47 -6 -54 -5 -7 -4 -16 2 -20 5 -3 12 -15 15 -26 4 -19
5 -19 6 1 0 12 9 25 18 28 14 6 15 9 4 15 -20 13 -9 56 16 59 17 3 20 -1 16
-17 -6 -22 12 -30 20 -8 2 6 8 -14 12 -46 5 -42 13 -62 29 -73 20 -14 20 -15
3 -25 -11 -7 -18 -21 -17 -37 3 -43 1 -46 -19 -28 -18 17 -20 15 -42 -29 -17
-34 -28 -45 -43 -44 -36 2 -47 -1 -41 -11 3 -5 17 -10 30 -10 26 0 46 -21 27
-28 -7 -2 -12 -8 -12 -14 0 -9 39 -7 111 7 10 2 25 -3 33 -11 17 -16 83 -19
88 -3 2 5 11 11 20 13 10 1 20 5 23 7 3 3 22 3 43 0 l37 -7 -2 -82 c-1 -45 2
-82 6 -82 5 0 12 -18 16 -40 7 -43 20 -58 29 -35 8 21 23 19 29 -6 4 -15 2
-18 -7 -10 -9 7 -16 7 -24 -1 -8 -8 -19 -2 -42 21 -24 24 -35 29 -45 21 -9 -8
-15 -8 -20 0 -14 23 -22 7 -24 -51 -1 -67 -7 -63 59 -43 21 6 28 -10 10 -21
-6 -4 -10 -70 -10 -165 0 -131 -3 -159 -15 -164 -11 -4 -15 2 -15 20 0 17 -7
28 -20 31 -16 4 -20 14 -20 49 0 30 5 46 15 50 8 4 15 12 15 19 0 10 -14 13
-47 12 l-48 -2 4 -73 c2 -40 -1 -72 -5 -71 -21 4 -33 -2 -37 -18 -3 -10 -5 10
-6 44 -1 53 2 64 19 73 11 6 20 15 20 19 0 5 -9 11 -20 14 -18 5 -20 14 -20
80 0 93 -10 122 -47 132 -15 5 -31 8 -35 7 -5 -1 -8 4 -8 12 0 13 45 14 79 1
9 -4 11 0 7 11 -3 8 -6 20 -6 25 0 14 -41 11 -72 -5 -26 -14 -28 -13 -27 7 0
12 -4 38 -8 57 -7 28 -14 36 -35 38 -22 3 -26 0 -21 -17 9 -35 -15 -76 -52
-90 -20 -7 -35 -19 -35 -28 0 -13 3 -13 15 -3 8 7 15 9 15 4 0 -5 5 -1 11 10
11 17 13 17 35 -10 26 -32 30 -50 13 -56 -8 -3 -13 -75 -15 -223 -3 -121 -6
-225 -9 -232 -2 -6 -21 -19 -42 -29 -21 -10 -41 -23 -45 -28 -4 -6 -8 3 -9 19
-3 43 -4 49 -11 61 -4 6 -3 25 2 43 5 18 5 31 0 31 -5 0 -7 7 -4 15 4 8 1 15
-5 15 -6 0 -11 9 -11 21 0 11 5 17 10 14 6 -3 10 0 10 8 0 8 12 22 26 32 14 9
23 19 19 23 -3 4 -10 0 -14 -7 -5 -8 -17 -11 -28 -7 -34 11 -46 159 -15 182
16 13 16 13 -3 15 -11 1 -30 0 -42 -1 -23 -1 -59 14 -80 36 -15 14 -17 28 -4
20 5 -3 11 3 14 13 4 17 10 18 42 11 21 -5 42 -15 46 -22 5 -7 9 -8 9 -3 0 6
15 19 33 29 l32 19 -35 8 c-19 5 -102 6 -185 4 -87 -2 -154 0 -161 6 -6 5 -22
8 -34 7 -13 -2 -25 3 -27 10 -4 11 16 12 107 8 61 -3 122 -9 136 -12 13 -3 30
-1 38 5 9 7 22 8 37 3 29 -10 40 -10 58 2 11 7 11 10 0 17 -11 7 -10 9 4 9 23
0 22 17 -3 25 -28 9 -25 25 5 25 14 0 25 5 25 12 0 6 3 8 8 4 4 -4 7 -12 7
-16 0 -5 9 -16 20 -24 11 -9 14 -16 8 -16 -16 0 -17 -20 -2 -20 6 0 13 9 16
20 3 10 13 22 23 25 14 4 17 13 13 35 -4 28 -2 30 31 30 26 0 36 5 41 21 7 22
-5 43 -12 22 -6 -18 -52 -16 -59 2 -4 8 -12 15 -20 15 -29 0 -13 19 19 22 31
4 28 7 -17 22 -18 6 -18 7 -1 20 19 14 14 53 -5 41 -6 -3 -13 1 -16 9 -7 19
-55 21 -72 4 -7 -7 -12 -8 -12 -2 0 6 5 15 11 21 8 8 0 14 -27 23 -28 10 -39
10 -42 1 -4 -13 -72 -15 -72 -2 0 5 -12 9 -26 9 -21 0 -25 -4 -21 -20 3 -11 3
-17 0 -14 -4 3 -12 1 -20 -5 -9 -8 -17 -8 -26 0 -27 22 -37 -9 -37 -116 l0
-103 -25 6 c-15 4 -25 2 -25 -5 0 -6 -5 -11 -11 -11 -6 0 -9 9 -6 20 3 11 1
20 -4 20 -5 0 -9 12 -9 28 0 19 -3 23 -9 13 -6 -10 -11 -5 -17 20 -4 19 -7 40
-5 47 3 20 -17 14 -24 -8 -9 -27 -25 -25 -26 3 -1 14 -4 9 -8 -13 -7 -38 -40
-55 -75 -37 -13 6 -21 5 -26 -3 -4 -7 -13 -9 -19 -6 -6 4 -11 0 -11 -8 0 -27
-18 -17 -25 13 -11 51 -95 51 -95 0 0 -15 -4 -31 -10 -34 -5 -3 -10 3 -10 14
0 12 -4 21 -10 21 -5 0 -10 -13 -10 -30 0 -16 -4 -30 -10 -30 -5 0 -10 5 -10
10 0 6 -11 8 -25 4 -18 -4 -30 1 -50 22 -14 15 -23 34 -20 41 2 8 0 11 -5 8
-6 -3 -10 1 -10 9 0 9 4 16 8 16 11 0 10 76 -1 86 -4 4 -7 14 -6 23 0 12 3 11
9 -4 6 -14 9 1 10 50 1 49 4 64 10 50 7 -16 9 -10 11 25 l2 45 7 -40 7 -40 2
37 c0 20 5 39 10 42 16 10 21 -43 16 -179 -2 -71 -1 -138 1 -148 8 -27 24 -10
25 26 0 31 1 31 10 8 10 -26 25 -20 31 14 2 15 -3 21 -20 23 -21 3 -23 8 -21
61 2 51 4 58 21 53 10 -2 18 1 18 7 0 6 -7 11 -15 11 -24 0 -17 20 8 21 21 0
21 1 -3 11 l-25 11 23 4 c12 3 22 10 21 16 -4 36 2 56 15 51 10 -4 15 1 15 13
0 10 3 47 7 83 l6 65 -46 11 c-41 9 -46 8 -52 -8 -6 -20 -9 -21 -74 -22 -42
-1 -45 -3 -48 -31 -2 -16 -8 -34 -13 -40 -5 -5 -9 -19 -9 -31 0 -12 -11 -29
-25 -38 -52 -34 -101 -10 -114 56 -5 26 -12 33 -31 35 -14 1 -54 4 -90 6 -48
4 -67 9 -77 23 -39 60 -41 61 -60 37 -17 -21 -20 -22 -46 -8 -18 9 -44 13 -73
9 -35 -4 -44 -2 -44 11 0 18 -40 21 -58 3z m825 -110 c-3 -8 -6 -5 -6 6 -1 11
2 17 5 13 3 -3 4 -12 1 -19z m5148 -28 c-3 -5 -13 -10 -21 -10 -8 0 -14 5 -14
10 0 6 9 10 21 10 11 0 17 -4 14 -10z m-6475 -39 c0 -9 -41 -23 -48 -16 -2 2
-2 7 1 12 7 11 47 14 47 4z m75 -1 c-3 -5 -17 -10 -31 -10 -13 0 -24 5 -24 10
0 6 14 10 31 10 17 0 28 -4 24 -10z m3002 -22 c-3 -8 -6 -5 -6 6 -1 11 2 17 5
13 3 -3 4 -12 1 -19z m-2508 0 c0 -7 -4 -22 -9 -33 -7 -18 -8 -18 -15 7 -4 15
-14 29 -23 31 -10 3 -2 5 16 6 20 1 32 -4 31 -11z m154 -8 c-3 -11 -9 -20 -14
-20 -11 0 -11 3 -3 24 9 23 23 20 17 -4z m303 -33 c15 -8 20 -77 6 -77 -21 0
-46 88 -35 117 7 15 8 15 11 -7 2 -14 10 -29 18 -33z m4964 27 c5 -5 -4 -9
-24 -9 -20 0 -32 4 -29 11 5 13 39 12 53 -2z m-3500 -4 c0 -5 -4 -10 -10 -10
-5 0 -10 5 -10 10 0 6 5 10 10 10 6 0 10 -4 10 -10z m345 -6 c8 11 15 13 20 7
3 -6 1 -11 -4 -11 -6 0 -11 -6 -11 -14 0 -8 -8 -13 -17 -11 -10 2 -27 4 -37 4
-19 1 -19 2 -1 21 17 19 20 19 28 4 9 -16 11 -16 22 0z m-85 -34 c0 -33 -10
-43 -30 -30 -11 7 -11 14 0 39 15 36 30 32 30 -9z m3267 -19 c-14 -5 -16 2 -9
34 l6 30 6 -30 c3 -16 2 -32 -3 -34z m442 2 c1 -13 -4 -23 -9 -23 -17 0 -29
43 -17 65 10 19 10 19 18 0 4 -11 8 -30 8 -42z m-3759 26 c0 -6 -4 -7 -10 -4
-5 3 -10 11 -10 16 0 6 5 7 10 4 6 -3 10 -11 10 -16z m-165 1 c3 -5 -1 -10 -9
-10 -9 0 -16 5 -16 10 0 6 4 10 9 10 6 0 13 -4 16 -10z m63 -8 c2 -7 -3 -12
-12 -12 -9 0 -16 7 -16 16 0 17 22 14 28 -4z m309 -14 c-3 -7 -5 -2 -5 12 0
14 2 19 5 13 2 -7 2 -19 0 -25z m43 13 c0 -4 -7 -8 -15 -8 -8 0 -15 6 -15 13
0 8 6 11 15 8 8 -4 15 -9 15 -13z m3550 -11 c0 -16 -4 -30 -10 -30 -5 0 -10
14 -10 30 0 17 5 30 10 30 6 0 10 -13 10 -30z m-5428 -18 c-4 -11 -6 -11 -13
0 -5 7 -9 19 -9 26 0 10 3 10 14 0 7 -7 11 -19 8 -26z m3928 3 c0 -33 -1 -34
-37 -29 -21 2 -33 2 -26 -2 9 -4 10 -20 6 -51 -7 -55 2 -63 75 -63 l52 0 0
-46 c0 -43 -1 -45 -22 -38 -26 8 -89 7 -132 -2 l-29 -6 5 51 c5 51 5 51 -24
51 -16 0 -31 6 -34 15 -4 10 -13 13 -25 10 -15 -5 -19 -1 -19 19 0 16 -6 26
-14 26 -21 0 -26 13 -18 41 5 19 15 24 42 26 78 5 114 2 121 -8 4 -7 13 -2 25
13 10 13 26 25 36 25 14 1 18 -6 18 -32z m-4090 14 c0 -6 -9 -8 -20 -4 -15 5
-20 2 -21 -12 -1 -17 -2 -17 -6 0 -7 26 -23 21 -24 -8 -2 -37 -3 -43 -11 -51
-5 -4 -8 11 -8 33 0 22 3 43 7 46 11 11 83 8 83 -4z m5330 -10 c0 -5 -4 -9
-10 -9 -5 0 -10 7 -10 16 0 8 5 12 10 9 6 -3 10 -10 10 -16z m-6030 -39 c0
-27 -4 -50 -10 -50 -5 0 -10 23 -10 50 0 28 5 50 10 50 6 0 10 -22 10 -50z
m70 10 c0 -33 -3 -40 -20 -40 -21 0 -27 15 -10 25 6 3 10 17 10 31 0 13 5 24
10 24 6 0 10 -18 10 -40z m691 -57 c0 -48 -6 -92 -12 -98 -10 -9 -10 6 0 189
1 5 4 6 8 3 3 -4 5 -46 4 -94z m3767 90 c-10 -2 -26 -2 -35 0 -10 3 -2 5 17 5
19 0 27 -2 18 -5z m-4398 -45 c0 -25 -4 -38 -9 -32 -8 8 -4 74 5 74 2 0 4 -19
4 -42z m400 -29 c0 -52 -3 -69 -12 -66 -7 2 -12 9 -11 15 10 45 9 102 0 102
-10 0 11 19 21 20 1 0 2 -32 2 -71z m170 -40 c0 -53 -4 -89 -10 -89 -6 0 -10
39 -10 96 0 61 4 93 10 89 6 -3 10 -46 10 -96z m4674 59 c-4 -14 0 -21 15 -25
12 -3 21 -9 21 -14 0 -5 14 -9 31 -9 17 0 28 -4 24 -10 -7 -11 -57 -13 -92 -4
-15 4 -22 16 -26 42 -5 44 -1 53 19 45 9 -3 12 -12 8 -25z m431 -2 l0 -28
-152 -5 c-108 -4 -153 -2 -153 6 0 12 12 14 126 13 77 0 82 1 93 24 9 21 17
25 49 22 33 -3 37 -6 37 -32z m205 24 c0 -5 -2 -10 -4 -10 -3 0 -8 5 -11 10
-3 6 -1 10 4 10 6 0 11 -4 11 -10z m-5522 -40 c-1 -31 -18 -32 -18 -1 0 15 8
31 16 31 1 0 2 -13 2 -30z m5410 18 c-3 -7 -17 -17 -32 -23 -21 -7 -29 -6 -36
5 -16 25 -11 30 31 30 28 0 39 -4 37 -12z m-3615 -24 c2 -13 0 -27 -4 -30 -5
-3 -9 2 -9 10 0 9 -7 16 -15 16 -22 0 -18 25 4 27 13 1 20 -6 24 -23z m3197 1
c0 -16 -17 -19 -44 -9 -26 10 -18 24 14 24 20 0 30 -5 30 -15z m940 -5 c0 -5
-15 -10 -34 -10 -19 0 -43 -3 -53 -6 -12 -5 -15 -4 -8 4 9 9 29 14 83 21 6 0
12 -3 12 -9z m-4793 -22 c-3 -8 -6 -5 -6 6 -1 11 2 17 5 13 3 -3 4 -12 1 -19z
m3573 2 c6 -11 8 -20 6 -20 -3 0 -10 9 -16 20 -6 11 -8 20 -6 20 3 0 10 -9 16
-20z m-235 0 c3 -5 -1 -10 -10 -10 -9 0 -13 5 -10 10 3 6 8 10 10 10 2 0 7 -4
10 -10z m-985 -12 c0 -11 -28 -10 -35 1 -3 6 4 9 15 8 11 -1 20 -5 20 -9z
m237 -20 c-3 -7 -5 -2 -5 12 0 14 2 19 5 13 2 -7 2 -19 0 -25z m-2587 2 c0 -5
-2 -10 -4 -10 -3 0 -8 5 -11 10 -3 6 -1 10 4 10 6 0 11 -4 11 -10z m3458 -21
c6 -47 10 -53 29 -38 14 12 15 11 9 -9 -6 -18 -4 -22 13 -22 12 0 21 -5 21
-11 0 -14 -53 -2 -59 12 -1 6 -11 3 -21 -6 -12 -11 -26 -14 -41 -10 -15 5 -18
9 -9 15 7 4 9 13 5 20 -5 8 -4 11 2 7 6 -4 16 -1 22 7 9 10 8 16 -4 26 -12 10
-13 16 -4 27 17 19 33 11 37 -18z m-798 11 c0 -12 -28 -25 -36 -17 -9 9 6 27
22 27 8 0 14 -5 14 -10z m140 -10 c0 -5 -6 -10 -14 -10 -8 0 -18 5 -21 10 -3
6 3 10 14 10 12 0 21 -4 21 -10z m1298 -36 l82 -19 0 -38 c0 -35 -2 -37 -20
-27 -11 6 -19 16 -17 22 1 6 -34 19 -83 30 -47 10 -107 25 -135 33 -27 8 -63
17 -79 20 -19 4 -25 9 -18 14 15 9 155 -10 270 -35z m-5217 18 c-7 -2 -18 1
-23 6 -8 8 -4 9 13 5 13 -4 18 -8 10 -11z m1119 -7 c0 -14 -4 -25 -9 -25 -4 0
-6 11 -3 25 2 14 6 25 8 25 2 0 4 -11 4 -25z m2574 1 c-3 -8 -14 -16 -25 -19
-14 -4 -19 0 -19 14 0 14 7 19 25 19 17 0 23 -4 19 -14z m796 -1 c0 -8 -4 -15
-10 -15 -5 0 -10 7 -10 15 0 8 5 15 10 15 6 0 10 -7 10 -15z m426 0 c-27 -21
-53 -20 -36 0 7 8 22 15 34 15 21 -1 21 -1 2 -15z m-3616 -14 c0 -6 -4 -13
-10 -16 -14 -9 -12 -52 3 -58 24 -11 -17 -27 -62 -24 -58 3 -69 27 -12 27 37
0 41 2 41 25 0 30 -19 32 -47 5 -21 -19 -21 -19 -31 10 -6 15 -8 31 -5 34 10
10 123 7 123 -3z m2500 -29 c0 -7 -4 -10 -10 -7 -5 3 -10 16 -10 28 0 18 2 19
10 7 5 -8 10 -21 10 -28z m1060 19 c0 -6 -5 -13 -11 -16 -7 -5 -3 -15 11 -30
23 -24 19 -50 -6 -41 -19 7 -18 -8 1 -24 23 -19 18 -26 -20 -25 -36 2 -88 35
-54 35 11 0 15 11 15 36 0 26 7 42 23 55 25 21 41 24 41 10z m180 -37 l35 -13
-32 -2 c-38 -2 -53 -2 -90 0 -26 1 -26 1 -8 21 19 21 23 21 95 -6z m827 8 c8
-5 8 -12 -2 -26 -10 -14 -21 -17 -41 -12 -25 7 -26 8 -9 26 19 21 33 24 52 12z
m-418 -18 c2 -2 -2 -11 -9 -19 -15 -18 -91 -17 -97 1 -7 22 83 37 106 18z
m199 -16 c-5 -15 -68 -24 -68 -9 0 12 18 19 48 20 15 1 22 -4 20 -11z m-5449
-22 c21 -22 21 -24 3 -28 -23 -6 -84 13 -89 29 -2 6 8 13 24 16 15 2 31 5 34
6 3 0 16 -10 28 -23z m4039 6 c2 -7 -2 -10 -12 -6 -9 3 -16 11 -16 16 0 13 23
5 28 -10z m112 -29 c0 -7 -9 -13 -20 -13 -11 0 -20 5 -20 10 0 6 5 10 11 10 7
0 9 9 6 23 -6 21 -6 21 8 3 8 -11 15 -26 15 -33z m-3250 28 c0 -5 -7 -14 -15
-21 -16 -14 -18 -10 -9 14 6 17 24 22 24 7z m4605 -1 c3 -5 1 -10 -4 -10 -6 0
-11 5 -11 10 0 6 2 10 4 10 3 0 8 -4 11 -10z m-1715 -36 c0 -8 4 -14 9 -14 5
0 11 -13 14 -28 5 -26 9 -28 38 -24 22 3 30 1 25 -7 -4 -6 -14 -11 -22 -11 -8
0 -14 -10 -14 -22 0 -14 -3 -18 -8 -11 -4 6 -16 11 -27 10 -11 -1 -20 4 -20
12 0 22 -23 25 -28 4 -4 -17 -4 -17 -12 1 -6 13 -5 21 2 23 7 3 9 18 6 38 -8
47 2 71 22 55 8 -7 15 -19 15 -26z m1827 20 c-3 -3 -12 -4 -19 -1 -8 3 -5 6 6
6 11 1 17 -2 13 -5z m-5433 -34 c12 -30 30 -32 19 -3 -4 11 0 14 13 11 14 -2
19 -12 19 -38 0 -31 -3 -35 -27 -38 -20 -2 -28 1 -28 12 0 26 -105 22 -127 -4
-27 -31 -43 -25 -43 15 0 30 5 37 32 48 34 14 58 4 58 -22 0 -16 33 -14 56 3
18 14 18 15 2 21 -22 9 -23 25 -3 25 9 0 22 -14 29 -30z m4396 -28 c0 -5 -7
-17 -16 -28 -14 -17 -15 -17 -10 -1 3 10 6 23 6 28 0 5 5 9 10 9 6 0 10 -4 10
-8z m-2760 -11 c0 -6 -4 -13 -10 -16 -5 -3 -10 1 -10 9 0 9 5 16 10 16 6 0 10
-4 10 -9z m2793 -15 c-3 -16 -10 -23 -19 -19 -17 6 -18 30 -1 36 22 9 24 7 20
-17z m-4903 -2 c0 -8 -4 -12 -10 -9 -5 3 -10 10 -10 16 0 5 5 9 10 9 6 0 10
-7 10 -16z m647 10 c-3 -3 -12 -4 -19 -1 -8 3 -5 6 6 6 11 1 17 -2 13 -5z
m4315 -66 c-6 -6 -15 -8 -19 -4 -4 4 -1 11 7 16 19 12 27 3 12 -12z m-1742
-48 c0 -5 -5 -10 -11 -10 -5 0 -7 5 -4 10 3 6 8 10 11 10 2 0 4 -4 4 -10z m39
-62 c1 -15 -3 -29 -8 -32 -10 -7 -18 48 -12 79 l4 20 8 -20 c4 -11 8 -32 8
-47z m81 15 c14 -17 13 -23 -4 -17 -19 7 -16 -27 4 -43 18 -15 6 -17 -21 -3
-15 9 -19 21 -19 63 1 48 2 50 15 32 8 -11 19 -25 25 -32z m-1658 0 c4 -62 3
-99 -5 -122 -5 -16 -4 -27 5 -32 9 -6 9 -14 1 -31 -6 -14 -9 -44 -7 -69 5 -50
-8 -81 -27 -62 -6 6 -14 59 -17 123 -3 78 -8 108 -15 101 -19 -19 -27 -12 -27
24 0 19 5 35 10 35 6 0 10 -6 10 -12 0 -9 3 -8 9 2 19 29 -7 40 -33 14 -15
-14 -16 -14 -16 5 0 15 6 21 23 21 13 0 32 7 43 15 29 22 44 18 46 -12z m1538
2 c0 -8 -4 -15 -10 -15 -5 0 -10 7 -10 15 0 8 5 15 10 15 6 0 10 -7 10 -15z
m650 5 c0 -5 -6 -10 -12 -11 -10 0 -10 -2 0 -6 19 -7 16 -147 -3 -163 -16 -13
-17 -11 -19 32 0 15 -5 27 -11 25 -5 -1 -8 -10 -7 -19 2 -10 -2 -18 -7 -18 -7
0 -10 26 -10 68 1 37 4 56 6 43 3 -13 11 -31 19 -38 12 -13 14 -7 10 41 -3 50
-2 56 15 56 10 0 19 -4 19 -10z m67 -15 c-4 -8 -2 -17 3 -20 5 -3 9 -39 9 -80
-1 -54 -5 -75 -15 -79 -20 -8 -24 7 -27 107 -2 79 0 87 17 87 12 0 16 -5 13
-15z m-3564 -47 c-2 -5 -8 -8 -14 -8 -11 0 -12 33 -2 44 8 8 23 -25 16 -36z
m989 -3 c-2 -15 -8 -23 -13 -18 -10 10 0 55 11 48 4 -2 5 -16 2 -30z m2345
-42 c-2 -16 -4 -5 -4 22 0 28 2 40 4 28 2 -13 2 -35 0 -50z m-1107 47 c0 -5
-4 -10 -10 -10 -5 0 -10 5 -10 10 0 6 5 10 10 10 6 0 10 -4 10 -10z m-1040
-40 c0 -5 -4 -10 -10 -10 -5 0 -10 5 -10 10 0 6 5 10 10 10 6 0 10 -4 10 -10z
m652 -18 c2 -15 1 -38 -3 -52 -6 -20 -7 -16 -8 18 -1 23 -6 42 -12 42 -5 0 -7
5 -4 10 11 18 23 10 27 -18z m48 -18 c0 -25 -4 -43 -8 -40 -7 4 -4 86 4 86 2
0 4 -21 4 -46z m999 -36 c1 -20 -3 -40 -9 -43 -6 -4 -10 19 -9 62 1 49 3 61 9
43 4 -14 8 -42 9 -62z m61 12 c0 -33 -4 -60 -10 -60 -11 0 -14 103 -3 113 12
12 13 8 13 -53z m70 -6 c0 -30 -4 -54 -10 -54 -6 0 -10 27 -10 61 0 37 4 58
10 54 6 -3 10 -31 10 -61z m-2060 31 c0 6 5 2 10 -7 8 -12 5 -26 -10 -50 l-20
-33 1 60 c0 43 3 54 9 40 5 -11 9 -15 10 -10z m-48 -47 c1 -29 0 -64 -2 -78
-5 -42 -15 49 -11 98 4 58 12 46 13 -20z m517 -5 c0 -37 -3 -51 -8 -39 -4 11
-6 29 -5 40 1 12 3 29 3 39 1 9 3 17 6 17 3 0 5 -26 4 -57z m2248 2 c-4 -13
-77 -19 -77 -7 0 16 11 20 46 19 19 -1 32 -6 31 -12z m-182 -48 c9 -36 1 -172
-10 -170 -14 4 -20 193 -6 193 6 0 13 -10 16 -23z m83 -103 l3 -119 -21 40
c-30 59 -27 212 4 202 7 -2 12 -46 14 -123z m92 80 c0 -2 -16 -4 -36 -4 -19 0
-33 4 -30 8 5 8 66 4 66 -4z m-3080 -36 c0 -10 -4 -16 -10 -13 -6 4 -10 -25
-10 -79 0 -51 -4 -86 -10 -86 -11 0 -15 192 -4 203 11 11 34 -5 34 -25z m2847
-10 c-3 -8 -6 -5 -6 6 -1 11 2 17 5 13 3 -3 4 -12 1 -19z m-640 -4 c3 -9 0
-20 -7 -24 -10 -6 -7 -14 13 -33 44 -40 32 -67 -30 -67 -25 0 -25 1 -10 18 25
28 22 45 -7 38 -15 -4 -26 -1 -28 6 -3 7 -18 11 -36 10 -35 -3 -37 0 -22 29
11 20 40 27 40 9 0 -5 5 -10 11 -10 5 0 8 4 5 9 -3 4 6 6 19 3 18 -3 25 0 25
12 0 21 19 21 27 0z m883 -1 c0 -8 -15 -13 -40 -13 -25 0 -40 5 -40 13 0 7 15
12 40 12 25 0 40 -5 40 -12z m-2270 -3 c0 -5 -8 -10 -17 -10 -15 0 -16 2 -3
10 19 12 20 12 20 0z m1670 -15 c0 -16 -6 -25 -15 -25 -9 0 -15 9 -15 25 0 16
6 25 15 25 9 0 15 -9 15 -25z m-662 -17 c-3 -35 -8 -36 -70 -24 -22 4 -28 2
-28 -12 0 -10 5 -23 12 -30 9 -9 7 -12 -12 -12 -14 0 -31 4 -39 9 -17 11 -7
41 14 41 8 0 20 11 25 24 6 16 19 26 37 29 64 9 64 9 61 -25z m-1459 -55 c-1
-27 -4 -38 -6 -25 -2 12 -9 20 -14 17 -5 -4 -9 1 -9 9 0 9 5 16 10 16 6 0 10
7 10 15 0 8 2 15 5 15 3 0 4 -21 4 -47z m2691 34 c0 7 7 10 15 7 27 -11 16
-24 -20 -24 -19 0 -35 4 -35 9 0 14 24 19 32 7 5 -8 8 -7 8 1z m-2766 -39 c-3
-5 -6 -25 -6 -44 0 -19 -4 -34 -8 -34 -14 0 -17 23 -9 55 5 16 6 39 3 50 -5
19 -5 20 10 1 9 -10 13 -23 10 -28z m629 27 c-3 -19 -78 -32 -160 -27 -46 2
-83 8 -83 12 0 5 18 6 40 3 25 -4 40 -2 40 5 0 14 33 20 105 18 34 0 59 -5 58
-11z m481 8 c-5 -5 -12 -12 -16 -18 -4 -6 -8 -2 -8 8 0 9 7 17 17 17 9 0 12
-3 7 -7z m96 -3 c13 -9 13 -10 0 -10 -8 0 -22 5 -30 10 -13 9 -13 10 0 10 8 0
22 -5 30 -10z m130 -10 c0 -5 -18 -10 -41 -10 -24 0 -38 4 -34 10 3 6 22 10
41 10 19 0 34 -4 34 -10z m-540 -19 c-25 -15 -73 -17 -77 -3 -3 8 9 12 44 12
32 -1 43 -3 33 -9z m-921 -64 c0 -21 -1 -21 -9 -2 -12 28 -12 37 0 30 6 -3 10
-16 9 -28z m966 23 c3 -5 1 -10 -4 -10 -6 0 -11 5 -11 10 0 6 2 10 4 10 3 0 8
-4 11 -10z m1725 -10 c0 -5 -9 -10 -20 -10 -11 0 -20 5 -20 10 0 6 9 10 20 10
11 0 20 -4 20 -10z m-1172 -39 c2 -14 -2 -21 -12 -21 -19 0 -20 -13 -4 -39 17
-28 5 -46 -42 -60 -48 -14 -120 -6 -120 14 0 16 -52 61 -81 70 -15 5 -18 10
-10 18 7 7 15 6 26 -3 8 -7 19 -10 22 -6 4 4 1 11 -7 16 -18 11 -11 19 21 22
18 2 25 -2 27 -18 5 -37 42 -37 76 -1 23 25 37 32 65 31 29 -1 37 -5 39 -23z
m636 2 c11 -6 35 -6 68 1 40 8 52 8 56 -2 2 -6 10 -12 18 -12 21 0 17 -9 -16
-37 -18 -15 -30 -34 -30 -49 0 -36 -37 -47 -93 -28 -49 17 -85 48 -68 59 19
11 12 36 -9 33 -21 -3 -23 1 -14 36 5 21 9 23 38 16 18 -4 40 -11 50 -17z
m-2069 -2 c3 -5 1 -12 -5 -16 -5 -3 -10 1 -10 9 0 18 6 21 15 7z m-93 -34 c3
-15 0 -24 -9 -24 -14 0 -16 7 -7 31 8 21 11 20 16 -7z m1225 -31 c-8 -19 3
-28 18 -16 15 13 45 3 45 -15 0 -8 9 -10 26 -7 l26 5 -23 -25 c-23 -23 -25
-24 -51 -9 -16 8 -28 19 -28 23 0 14 -19 9 -37 -9 -10 -10 -25 -18 -33 -18 -8
0 -17 -11 -18 -24 -3 -19 0 -22 12 -18 10 4 19 1 22 -8 5 -12 8 -12 20 0 8 7
14 23 14 36 0 18 2 19 15 9 8 -7 15 -21 15 -31 0 -11 5 -19 10 -19 6 0 10 7
10 15 0 8 7 15 15 15 8 0 15 -6 15 -13 0 -20 -38 -47 -65 -47 -14 0 -25 -4
-25 -9 0 -18 35 -21 86 -6 29 8 90 17 134 18 55 2 84 7 90 16 10 17 509 18
645 1 171 -21 205 -23 205 -12 0 5 -7 12 -15 16 -8 3 -15 10 -15 15 0 5 18 2
40 -7 40 -17 52 -32 25 -32 -8 0 -15 -5 -15 -10 0 -7 13 -8 38 -4 66 14 87 11
90 -11 2 -15 -3 -21 -18 -21 -11 0 -20 4 -20 9 0 14 -61 -1 -80 -18 -10 -9
-24 -13 -31 -10 -8 3 -73 16 -144 29 -72 13 -121 25 -110 26 32 4 -32 17 -85
19 -34 0 -41 -2 -30 -10 11 -8 8 -9 -15 -5 -16 3 -56 8 -87 11 -50 5 -57 4
-52 -10 5 -11 0 -15 -19 -15 -14 0 -28 -4 -32 -9 -3 -6 -14 -8 -25 -6 -11 2
-20 0 -20 -6 0 -5 5 -9 10 -9 7 0 7 -6 0 -19 -16 -31 -13 -46 7 -30 14 12 16
12 11 -1 -10 -30 -33 -16 -36 23 -3 39 13 72 29 61 5 -3 9 -1 9 5 0 22 -520
-16 -528 -39 -2 -6 -16 -10 -31 -10 -15 0 -31 -4 -36 -9 -6 -6 -15 -4 -23 5
-7 8 -8 14 -2 14 5 0 10 9 10 19 0 11 5 21 12 23 6 2 9 9 5 14 -3 6 -35 9 -71
8 -71 -3 -93 9 -52 28 14 6 26 15 26 20 0 16 62 67 75 61 7 -2 16 5 20 16 3
11 14 22 23 24 9 3 19 5 21 6 2 0 1 -5 -2 -13z m1083 -46 c0 -5 -4 -10 -10
-10 -5 0 -10 5 -10 10 0 6 5 10 10 10 6 0 10 -4 10 -10z m-1550 -49 c-5 -11
-15 -23 -21 -27 -6 -3 -3 5 6 20 20 30 30 35 15 7z m1677 13 c-3 -3 -12 -4
-19 -1 -8 3 -5 6 6 6 11 1 17 -2 13 -5z m268 -34 c3 -5 1 -10 -4 -10 -6 0 -11
5 -11 10 0 6 2 10 4 10 3 0 8 -4 11 -10z m-658 -46 c-3 -3 -12 -4 -19 -1 -8 3
-5 6 6 6 11 1 17 -2 13 -5z m-150 -78 c2 -29 0 -37 -7 -26 -5 8 -10 23 -10 32
0 9 -7 24 -16 32 -8 9 -12 20 -9 26 12 19 40 -23 42 -64z m-772 54 c3 -5 1
-10 -4 -10 -6 0 -11 5 -11 10 0 6 2 10 4 10 3 0 8 -4 11 -10z m1100 -40 c19
-6 2 -7 -49 -3 -44 2 -89 8 -100 13 -27 10 109 1 149 -10z m-388 -7 c4 -11
-26 -27 -35 -19 -2 3 -2 12 2 21 6 18 27 16 33 -2z m686 0 c-7 -2 -21 -2 -30
0 -10 3 -4 5 12 5 17 0 24 -2 18 -5z m-143 -13 c13 -9 13 -10 0 -9 -8 0 -24 4
-35 9 l-20 9 20 0 c11 0 27 -4 35 -9z m-2623 -22 c-3 -8 -6 -5 -6 6 -1 11 2
17 5 13 3 -3 4 -12 1 -19z m2122 -2 c-3 -25 2 -35 22 -41 16 -5 18 -9 9 -15
-7 -4 -9 -13 -6 -19 9 -14 -9 -14 -34 -1 -23 12 -26 102 -3 93 7 -3 13 -10 12
-17z m398 -2 c70 -5 86 -10 110 -32 15 -14 23 -27 17 -29 -6 -2 -20 -10 -30
-18 -17 -13 -18 -14 -1 -15 41 0 -7 -50 -49 -50 -7 0 -16 -9 -19 -20 -7 -21
-20 -26 -29 -11 -10 16 -45 0 -48 -23 -2 -11 -9 -21 -17 -21 -21 0 -25 23 -5
27 16 3 17 4 1 20 -23 22 -21 28 6 28 32 0 45 12 43 40 -1 14 4 32 11 41 12
14 10 18 -15 28 -24 10 -41 9 -87 -3 -31 -8 -64 -21 -73 -29 -31 -26 -48 -31
-27 -8 11 13 35 30 55 39 l35 16 -60 7 c-33 4 -88 7 -122 8 -35 1 -63 4 -63 9
0 8 231 6 367 -4z m-1019 -11 c2 -7 -4 -13 -14 -13 -14 0 -15 -3 -6 -12 10
-10 15 -10 20 -1 4 6 52 16 107 22 55 7 115 13 133 16 19 2 30 0 27 -6 -4 -5
-16 -9 -28 -9 -17 0 -11 -7 24 -28 26 -15 65 -48 86 -73 29 -34 44 -44 54 -38
11 7 10 11 -6 23 -11 9 -15 16 -8 16 6 0 15 -5 18 -10 5 -8 12 -7 22 1 12 10
16 10 23 0 4 -8 13 -10 19 -7 6 4 11 5 11 2 0 -2 3 -12 6 -21 5 -13 2 -15 -20
-9 -21 5 -26 3 -26 -12 0 -15 -2 -16 -9 -5 -6 9 -15 11 -27 6 -39 -17 -64 -7
-64 27 0 14 -5 18 -15 14 -11 -4 -15 1 -15 19 0 32 -37 59 -104 75 -45 11 -61
11 -83 1 -26 -12 -27 -14 -9 -26 10 -8 15 -18 12 -23 -3 -5 2 -9 12 -8 12 1
16 -5 15 -22 -2 -13 1 -21 7 -17 16 10 24 -24 9 -41 -10 -13 -10 -17 2 -25 11
-7 9 -13 -13 -34 -32 -29 -51 -32 -46 -7 2 10 11 16 21 14 9 -2 17 1 17 7 0
22 -13 41 -29 41 -24 0 -33 11 -21 25 8 10 1 14 -30 17 -33 3 -40 1 -40 -15 0
-10 -6 -17 -12 -16 -7 1 -20 -1 -30 -5 -9 -4 -37 -6 -62 -3 -25 2 -46 0 -46
-5 0 -4 -9 -8 -20 -8 -11 0 -20 7 -20 15 0 8 -8 15 -17 15 -40 1 55 39 97 40
42 0 70 13 70 31 0 13 -60 31 -90 27 -23 -4 -30 -1 -30 13 0 18 43 35 48 19 5
-15 22 -12 22 4 0 26 49 33 58 9z m479 1 c-3 -3 -12 -4 -19 -1 -8 3 -5 6 6 6
11 1 17 -2 13 -5z m37 -33 c10 -15 -38 -30 -51 -16 -6 7 -9 16 -6 19 9 9 51 7
57 -3z m666 -17 c0 -8 -4 -12 -10 -9 -5 3 -10 10 -10 16 0 5 5 9 10 9 6 0 10
-7 10 -16z m-705 -54 c-5 -8 -11 -8 -17 -2 -6 6 -7 16 -3 22 5 8 11 8 17 2 6
-6 7 -16 3 -22z m225 -8 c-7 -3 -16 2 -21 9 -16 25 -9 32 12 13 13 -12 16 -20
9 -22z m71 -15 c-10 -9 -11 -8 -5 6 3 10 9 15 12 12 3 -3 0 -11 -7 -18z m447
-5 c2 -7 -2 -10 -12 -6 -9 3 -16 11 -16 16 0 13 23 5 28 -10z m-968 -6 c0 -3
-4 -8 -10 -11 -5 -3 -10 -1 -10 4 0 6 5 11 10 11 6 0 10 -2 10 -4z m358 -14
c2 -7 -2 -10 -12 -6 -9 3 -16 11 -16 16 0 13 23 5 28 -10z m32 8 c0 -5 -5 -10
-11 -10 -5 0 -7 5 -4 10 3 6 8 10 11 10 2 0 4 -4 4 -10z m83 -14 c4 -10 0 -12
-14 -9 -27 7 -34 23 -11 23 11 0 22 -6 25 -14z m98 -19 c-6 -8 -7 -18 -3 -23
4 -4 -1 -2 -11 5 -14 11 -15 16 -5 22 20 13 32 10 19 -4z m419 -2 c10 -12 10
-15 -4 -15 -9 0 -16 7 -16 15 0 8 2 15 4 15 2 0 9 -7 16 -15z m-1290 1 c0 -2
-7 -9 -15 -16 -12 -10 -15 -10 -15 4 0 9 7 16 15 16 8 0 15 -2 15 -4z m1078
-14 c2 -7 -3 -12 -12 -12 -9 0 -16 -6 -16 -14 0 -15 -18 -31 -26 -24 -2 3 3
19 12 37 16 31 34 37 42 13z m-603 -2 c8 -13 -5 -13 -25 0 -13 8 -13 10 2 10
9 0 20 -4 23 -10z m231 -24 c12 -13 12 -17 -2 -30 -8 -9 -20 -16 -25 -16 -16
0 -22 29 -9 45 15 18 18 19 36 1z m-176 -17 c0 -5 -4 -9 -10 -9 -5 0 -10 7
-10 16 0 8 5 12 10 9 6 -3 10 -10 10 -16z m-745 1 c4 -6 -6 -10 -22 -9 -25 0
-26 1 -8 9 11 5 21 9 22 9 1 1 5 -3 8 -9z m1319 -28 c-6 -9 -20 -17 -30 -17
-11 0 -25 -4 -32 -9 -7 -4 -16 -5 -19 -2 -10 10 29 34 45 29 8 -4 16 3 19 16
4 16 9 19 17 11 8 -8 8 -15 0 -28z m-1927 2 c5 -14 -35 -26 -43 -13 -8 14 6
30 24 27 8 -2 17 -8 19 -14z m1593 -15 c0 -12 -33 -20 -43 -10 -5 5 -7 17 -4
26 6 13 10 13 27 3 11 -7 20 -16 20 -19z m-1002 6 c-3 -12 -29 -8 -43 7 -7 6
-1 8 18 6 15 -2 26 -7 25 -13z m697 5 c3 -5 -3 -10 -14 -10 -12 0 -21 5 -21
10 0 6 6 10 14 10 8 0 18 -4 21 -10z m-668 -22 c-3 -8 -6 -5 -6 6 -1 11 2 17
5 13 3 -3 4 -12 1 -19z m770 -15 c-3 -10 -5 -4 -5 12 0 17 2 24 5 18 2 -7 2
-21 0 -30z m431 -25 c5 -40 -34 -60 -90 -45 -31 8 -37 35 -10 43 9 3 31 12 47
19 39 18 49 14 53 -17z m-1173 -5 c-12 -32 -10 -36 15 -44 l25 -7 -27 -1 c-33
-1 -51 25 -35 51 15 23 31 24 22 1z m823 -3 c17 -11 32 -26 32 -33 0 -18 -83
-62 -88 -47 -3 8 -8 8 -18 -1 -8 -7 -14 -7 -14 -1 0 9 -36 25 -51 23 -4 0 -9
9 -12 21 -4 14 -3 18 4 11 10 -10 90 22 97 39 5 12 14 10 50 -12z m-938 -6 c0
-3 -6 -11 -13 -18 -10 -11 -15 -11 -24 0 -10 10 -10 14 0 17 17 8 37 8 37 1z
m220 -23 c0 -12 -20 -25 -27 -18 -7 7 6 27 18 27 5 0 9 -4 9 -9z m1974 -35
c-6 -26 -24 -37 -24 -13 0 29 13 58 22 49 5 -5 6 -21 2 -36z m-804 25 c0 -5
-7 -11 -14 -14 -10 -4 -13 -1 -9 9 6 15 23 19 23 5z m-630 -21 c0 -12 -8 -12
-35 0 -18 8 -17 9 8 9 15 1 27 -3 27 -9z m290 0 c-19 -13 -30 -13 -30 0 0 6
10 10 23 10 18 0 19 -2 7 -10z m-1230 -41 c-12 -23 -24 -38 -27 -35 -5 5 35
76 43 76 2 0 -5 -18 -16 -41z m272 32 c-5 -3 -13 -19 -19 -35 -11 -35 -34 -49
-26 -16 4 16 0 23 -16 27 -11 3 -21 9 -21 12 0 16 14 21 52 19 21 -1 35 -4 30
-7z m497 -17 c25 -32 28 -82 5 -91 -20 -7 -41 12 -23 22 8 6 10 4 4 -5 -5 -8
-4 -11 3 -6 16 10 4 34 -16 32 -9 0 -18 7 -20 17 -2 11 3 17 13 17 14 0 13 4
-6 20 -24 19 -24 19 -2 20 12 0 31 -12 42 -26z m736 6 c10 -11 16 -22 13 -25
-3 -3 -11 1 -18 10 -7 8 -19 15 -27 15 -8 0 -11 5 -8 10 9 15 20 12 40 -10z
m-101 -5 c-4 -8 -1 -15 6 -15 6 0 8 -5 3 -12 -4 -7 -8 -19 -8 -27 0 -7 -10
-17 -22 -22 -20 -7 -23 -5 -23 18 0 15 10 37 22 50 25 27 29 29 22 8z m325
-42 c9 -18 9 -23 -1 -23 -7 0 -14 12 -14 26 -2 28 -1 28 15 -3z m-723 -28 c-3
-8 0 -17 6 -21 7 -5 3 -11 -12 -16 -12 -5 -25 -6 -28 -3 -3 3 -1 5 5 5 11 0
11 36 0 46 -15 15 -6 24 14 14 11 -7 18 -18 15 -25z m-141 15 c3 -5 1 -10 -4
-10 -6 0 -11 5 -11 10 0 6 2 10 4 10 3 0 8 -4 11 -10z m955 -23 c0 -18 -2 -19
-10 -7 -13 20 -13 43 0 35 6 -3 10 -16 10 -28z m-1000 -2 c0 -8 -4 -17 -10
-20 -6 -4 -10 5 -10 20 0 15 4 24 10 20 6 -3 10 -12 10 -20z m837 19 c-3 -3
-12 -4 -19 -1 -8 3 -5 6 6 6 11 1 17 -2 13 -5z m40 0 c-3 -3 -12 -4 -19 -1 -8
3 -5 6 6 6 11 1 17 -2 13 -5z m-517 -14 c0 -5 -8 -10 -17 -11 -11 0 -13 -3 -5
-6 21 -8 13 -23 -13 -23 -39 0 -15 37 33 49 1 1 2 -3 2 -9z m130 -31 c0 -4 -7
-6 -15 -3 -8 4 -15 10 -15 15 0 4 7 6 15 3 8 -4 15 -10 15 -15z m80 6 c-7 -9
-15 -13 -17 -11 -7 7 7 26 19 26 6 0 6 -6 -2 -15z m-353 -41 c-9 -9 -28 6 -21
18 4 6 10 6 17 -1 6 -6 8 -13 4 -17z m398 16 c3 -5 1 -10 -4 -10 -6 0 -11 5
-11 10 0 6 2 10 4 10 3 0 8 -4 11 -10z"/>
<path d="M4986 1944 c-8 -21 -1 -28 18 -21 9 4 13 13 10 22 -8 20 -20 19 -28
-1z"/>
<path d="M5043 1880 c0 -22 4 -40 8 -40 5 0 9 18 9 40 0 22 -4 40 -9 40 -4 0
-8 -18 -8 -40z"/>
<path d="M3498 1093 c7 -3 16 -2 19 1 4 3 -2 6 -13 5 -11 0 -14 -3 -6 -6z"/>
<path d="M4194 575 c25 -19 36 -19 36 0 0 10 -10 15 -27 15 -27 -1 -27 -1 -9
-15z"/>
<path d="M3191 590 c-7 -4 -12 -12 -10 -18 3 -7 10 -6 22 3 20 14 9 29 -12 15z"/>
<path d="M3140 546 c0 -9 7 -16 16 -16 17 0 14 22 -4 28 -7 2 -12 -3 -12 -12z"/>
<path d="M3135 510 c-3 -5 -1 -10 4 -10 6 0 11 5 11 10 0 6 -2 10 -4 10 -3 0
-8 -4 -11 -10z"/>
<path d="M3015 491 c-7 -12 12 -24 25 -16 11 7 4 25 -10 25 -5 0 -11 -4 -15
-9z"/>
<path d="M3595 2240 c-8 -14 3 -30 21 -30 8 0 14 -2 14 -4 0 -2 3 -11 6 -20 4
-11 1 -16 -10 -16 -9 0 -16 -7 -16 -15 0 -21 9 -19 36 11 29 31 30 44 4 44
-13 0 -20 7 -20 20 0 21 -24 28 -35 10z"/>
<path d="M3730 2225 c0 -8 -4 -15 -10 -15 -5 0 -10 -9 -10 -20 0 -11 -7 -20
-15 -20 -8 0 -15 -7 -15 -15 0 -8 7 -15 15 -15 8 0 15 7 15 15 0 8 7 15 15 15
8 0 15 -9 15 -20 0 -11 -4 -20 -10 -20 -5 0 -10 -7 -10 -15 0 -8 -7 -15 -16
-15 -9 0 -14 -7 -12 -17 5 -25 28 -28 28 -4 0 12 6 21 15 21 8 0 15 7 15 16 0
9 7 14 17 12 23 -4 30 -38 9 -38 -18 0 -22 -25 -5 -35 6 -4 13 2 16 14 3 12
12 21 19 21 22 0 16 31 -6 37 -20 5 -29 43 -10 43 6 0 10 7 10 15 0 8 -7 15
-15 15 -8 0 -15 -7 -15 -15 0 -8 -6 -15 -14 -15 -20 0 -29 30 -11 36 20 8 19
34 0 34 -8 0 -15 -7 -15 -15z"/>
<path d="M6718 2172 c-4 -12 -2 -25 4 -28 16 -10 22 4 11 28 l-10 22 -5 -22z"/>
<path d="M1505 2147 c-11 -9 -15 -19 -10 -27 4 -7 8 -42 7 -77 -1 -48 3 -63
13 -63 17 0 17 51 0 62 -6 5 -6 8 3 8 6 0 12 7 12 15 0 21 20 19 21 -2 1 -20
17 51 18 80 1 21 -37 23 -64 4z"/>
<path d="M3650 2121 c0 -12 6 -21 16 -21 9 0 14 7 12 17 -5 25 -28 28 -28 4z"/>
<path d="M2190 2120 c0 -5 5 -10 10 -10 6 0 10 5 10 10 0 6 -4 10 -10 10 -5 0
-10 -4 -10 -10z"/>
<path d="M3340 2119 c0 -5 5 -7 10 -4 6 3 10 8 10 11 0 2 -4 4 -10 4 -5 0 -10
-5 -10 -11z"/>
<path d="M6700 2110 c0 -5 9 -10 21 -10 11 0 17 5 14 10 -3 6 -13 10 -21 10
-8 0 -14 -4 -14 -10z"/>
<path d="M2020 2099 c0 -8 -13 -9 -41 -5 -23 4 -100 3 -173 -1 -72 -4 -119 -9
-103 -11 15 -2 27 -8 27 -13 0 -5 20 -9 44 -9 43 0 45 -1 48 -32 3 -28 7 -32
38 -35 64 -6 86 -13 70 -23 -23 -14 14 -24 39 -10 23 12 192 15 236 4 25 -6
28 -5 22 15 -3 11 -1 24 4 27 5 3 9 -4 9 -15 0 -12 5 -21 11 -21 6 0 9 6 6 13
-8 22 19 49 50 47 41 -3 51 0 28 10 -11 4 -32 5 -47 3 -17 -3 -28 -1 -28 6 0
6 -4 11 -10 11 -5 0 -10 -9 -10 -21 0 -14 -4 -18 -12 -12 -7 4 -17 8 -22 8 -5
0 -11 6 -13 13 -3 6 0 12 7 12 6 0 8 5 5 10 -11 19 -31 10 -41 -17 l-10 -28
-19 32 c-15 26 -22 30 -37 22 -13 -7 -20 -5 -30 11 -14 21 -48 28 -48 9z m80
-89 c0 -6 -11 -10 -25 -10 -14 0 -25 4 -25 8 0 4 11 9 25 10 14 1 25 -3 25 -8z"/>
<path d="M3620 2086 c0 -9 7 -16 16 -16 17 0 14 22 -4 28 -7 2 -12 -3 -12 -12z"/>
<path d="M4130 2090 c-8 -5 -30 -10 -47 -10 -32 0 -79 -33 -69 -48 2 -4 44 -5
93 -3 48 2 82 6 76 8 -17 6 -16 21 1 39 18 18 30 18 45 0 12 -14 51 -18 51 -6
0 28 -115 43 -150 20z"/>
<path d="M1630 2076 c0 -20 27 -28 34 -10 9 23 8 24 -14 24 -11 0 -20 -6 -20
-14z"/>
<path d="M1460 2060 c0 -5 5 -10 10 -10 6 0 10 5 10 10 0 6 -4 10 -10 10 -5 0
-10 -4 -10 -10z"/>
<path d="M1578 2063 c7 -3 16 -2 19 1 4 3 -2 6 -13 5 -11 0 -14 -3 -6 -6z"/>
<path d="M3660 2045 c0 -8 7 -15 15 -15 8 0 15 7 15 15 0 8 -7 15 -15 15 -8 0
-15 -7 -15 -15z"/>
<path d="M1587 2044 c-12 -12 -8 -24 8 -24 10 0 15 -11 15 -35 0 -25 4 -35 16
-35 10 0 14 6 11 15 -4 8 -2 17 3 20 15 9 -5 60 -26 63 -11 2 -23 0 -27 -4z"/>
<path d="M1688 2043 c-27 -7 -22 -20 7 -20 15 0 25 5 25 13 0 14 -3 15 -32 7z"/>
<path d="M1755 2035 c-3 -8 -7 -22 -10 -30 -3 -10 2 -15 15 -15 11 0 20 7 20
15 0 8 7 15 15 15 20 0 19 16 -1 24 -25 9 -34 7 -39 -9z"/>
<path d="M3732 2038 c3 -7 12 -14 21 -16 12 -2 15 1 11 12 -7 19 -38 22 -32 4z"/>
<path d="M3802 2041 c2 -7 7 -12 11 -12 12 1 9 15 -3 20 -7 2 -11 -2 -8 -8z"/>
<path d="M1545 2030 c-3 -5 -1 -10 4 -10 6 0 11 5 11 10 0 6 -2 10 -4 10 -3 0
-8 -4 -11 -10z"/>
<path d="M4251 2026 c-10 -12 -5 -16 33 -21 25 -4 52 -5 61 -2 8 4 17 2 20 -3
3 -4 0 -10 -7 -12 -8 -3 -6 -7 5 -11 11 -4 17 -1 17 8 0 10 11 15 33 15 24 0
28 -3 17 -10 -12 -8 -11 -10 7 -10 16 0 21 4 17 15 -4 10 0 15 12 15 9 0 14 3
10 8 -4 4 -47 7 -94 7 -48 0 -94 4 -103 8 -10 5 -20 2 -28 -7z"/>
<path d="M3870 2015 c0 -8 8 -15 19 -15 10 0 24 7 31 15 11 13 8 15 -19 15
-21 0 -31 -5 -31 -15z"/>
<path d="M3947 2016 c-10 -8 -14 -17 -9 -20 15 -9 42 4 42 20 0 17 -10 17 -33
0z"/>
<path d="M2304 2004 c4 -10 -1 -25 -10 -36 -22 -23 -18 -25 31 -17 35 5 37 7
18 14 -15 5 -23 15 -23 31 0 13 -5 24 -11 24 -6 0 -8 -7 -5 -16z"/>
<path d="M3630 2005 c0 -8 7 -15 15 -15 8 0 15 7 15 15 0 8 -7 15 -15 15 -8 0
-15 -7 -15 -15z"/>
<path d="M3700 2005 c0 -7 -7 -18 -16 -23 -9 -5 -14 -14 -10 -21 11 -18 26
-13 26 9 0 11 7 20 15 20 8 0 15 7 15 15 0 8 -7 15 -15 15 -8 0 -15 -7 -15
-15z"/>
<path d="M1585 2000 c-3 -5 -1 -10 4 -10 6 0 11 5 11 10 0 6 -2 10 -4 10 -3 0
-8 -4 -11 -10z"/>
<path d="M1673 1997 c5 -16 47 -19 47 -3 0 8 -11 14 -25 14 -14 0 -24 -5 -22
-11z"/>
<path d="M1790 2000 c0 -5 5 -10 11 -10 5 0 7 5 4 10 -3 6 -8 10 -11 10 -2 0
-4 -4 -4 -10z"/>
<path d="M3772 1998 c5 -15 28 -18 29 -3 0 6 -7 12 -17 13 -10 3 -15 -1 -12
-10z"/>
<path d="M4075 2000 c-4 -6 5 -10 19 -10 14 0 26 5 26 10 0 6 -9 10 -19 10
-11 0 -23 -4 -26 -10z"/>
<path d="M6750 1985 c0 -14 5 -25 10 -25 6 0 10 11 10 25 0 14 -4 25 -10 25
-5 0 -10 -11 -10 -25z"/>
<path d="M1545 1990 c3 -5 8 -10 11 -10 2 0 4 5 4 10 0 6 -5 10 -11 10 -5 0
-7 -4 -4 -10z"/>
<path d="M1750 1965 c0 -9 5 -15 11 -13 6 2 11 8 11 13 0 5 -5 11 -11 13 -6 2
-11 -4 -11 -13z"/>
<path d="M3330 1964 c0 -11 5 -14 16 -10 9 3 20 6 25 6 21 0 7 16 -16 18 -17
1 -25 -3 -25 -14z"/>
<path d="M3741 1964 c0 -11 3 -14 6 -6 3 7 2 16 -1 19 -3 4 -6 -2 -5 -13z"/>
<path d="M1500 1960 c0 -5 4 -10 9 -10 6 0 13 5 16 10 3 6 -1 10 -9 10 -9 0
-16 -4 -16 -10z"/>
<path d="M1711 1961 c-10 -6 -11 -13 -3 -27 10 -18 11 -18 17 -2 10 25 3 39
-14 29z"/>
<path d="M3760 1955 c0 -8 5 -15 10 -15 6 0 10 7 10 15 0 8 -4 15 -10 15 -5 0
-10 -7 -10 -15z"/>
<path d="M3820 1960 c0 -5 5 -10 11 -10 5 0 7 5 4 10 -3 6 -8 10 -11 10 -2 0
-4 -4 -4 -10z"/>
<path d="M4773 1955 c0 -8 4 -12 9 -9 4 3 8 9 8 15 0 5 -4 9 -8 9 -5 0 -9 -7
-9 -15z"/>
<path d="M1660 1946 c0 -24 17 -28 23 -6 3 13 0 20 -9 20 -8 0 -14 -6 -14 -14z"/>
<path d="M3640 1935 c0 -8 7 -15 15 -15 8 0 15 7 15 15 0 8 -7 15 -15 15 -8 0
-15 -7 -15 -15z"/>
<path d="M3881 1943 c-13 -3 -26 -13 -28 -24 -3 -10 -9 -19 -14 -19 -5 0 -9
-7 -9 -16 0 -16 13 -16 73 2 11 4 17 0 17 -10 0 -9 4 -16 10 -16 5 0 7 7 4 15
-5 12 0 15 23 13 l29 -2 -1 -69 c0 -59 3 -71 20 -80 11 -6 24 -11 29 -12 5 0
12 -8 15 -18 6 -17 8 -17 20 -3 7 9 10 16 5 17 -5 0 4 5 21 10 38 11 59 -6 31
-27 -18 -13 -16 -14 25 -14 89 -1 104 -1 127 5 22 5 31 25 12 25 -13 0 -69 62
-70 77 0 6 7 19 16 27 14 15 14 17 0 22 -9 3 -16 13 -16 21 0 8 -4 12 -9 8 -5
-3 -12 -1 -16 5 -4 6 -11 8 -16 5 -5 -4 -9 1 -9 9 0 16 -57 49 -71 40 -5 -3
-9 -1 -9 5 0 5 -10 10 -22 9 -44 0 -68 -9 -68 -23 0 -17 -16 -20 -25 -5 -3 6
-1 10 5 10 6 0 8 5 5 10 -6 10 -58 11 -104 3z m44 -23 c-3 -5 -13 -10 -21 -10
-8 0 -12 5 -9 10 3 6 13 10 21 10 8 0 12 -4 9 -10z m145 -66 c0 -21 4 -33 10
-29 21 13 9 -17 -19 -46 l-29 -30 -4 66 c-3 73 -3 75 24 75 14 0 18 -8 18 -36z
m90 -50 c0 -16 -16 -19 -25 -4 -8 13 4 32 16 25 5 -4 9 -13 9 -21z"/>
<path d="M1410 1930 c0 -5 9 -10 20 -10 11 0 20 5 20 10 0 6 -9 10 -20 10 -11
0 -20 -4 -20 -10z"/>
<path d="M1500 1910 c0 -29 9 -38 23 -23 4 3 2 12 -4 20 -9 9 -8 13 0 13 6 0
11 5 11 10 0 6 -7 10 -15 10 -10 0 -15 -10 -15 -30z"/>
<path d="M1545 1930 c-3 -5 -1 -10 4 -10 6 0 11 5 11 10 0 6 -2 10 -4 10 -3 0
-8 -4 -11 -10z"/>
<path d="M1610 1930 c0 -5 7 -10 15 -10 8 0 15 5 15 10 0 6 -7 10 -15 10 -8 0
-15 -4 -15 -10z"/>
<path d="M1750 1930 c0 -5 4 -10 9 -10 6 0 13 5 16 10 3 6 -1 10 -9 10 -9 0
-16 -4 -16 -10z"/>
<path d="M2330 1925 c0 -8 5 -15 10 -15 6 0 10 7 10 15 0 8 -4 15 -10 15 -5 0
-10 -7 -10 -15z"/>
<path d="M3362 1919 c-6 -15 -17 -29 -24 -32 -8 -2 -9 -8 -4 -13 5 -5 11 -4
13 4 3 6 11 12 18 12 19 0 24 11 15 35 -7 19 -8 18 -18 -6z"/>
<path d="M3710 1925 c0 -8 7 -15 15 -15 8 0 15 7 15 15 0 8 -7 15 -15 15 -8 0
-15 -7 -15 -15z"/>
<path d="M3797 1933 c-12 -11 -8 -23 8 -23 8 0 15 7 15 15 0 16 -12 20 -23 8z"/>
<path d="M3250 1920 c0 -5 5 -10 10 -10 6 0 10 5 10 10 0 6 -4 10 -10 10 -5 0
-10 -4 -10 -10z"/>
<path d="M1610 1895 c0 -9 6 -12 15 -9 8 4 15 10 15 15 0 5 -7 9 -15 9 -8 0
-15 -7 -15 -15z"/>
<path d="M1664 1899 c-3 -6 -1 -16 5 -22 8 -8 11 -5 11 11 0 24 -5 28 -16 11z"/>
<path d="M1750 1900 c0 -5 5 -10 10 -10 6 0 10 5 10 10 0 6 -4 10 -10 10 -5 0
-10 -4 -10 -10z"/>
<path d="M3680 1896 c0 -9 7 -16 16 -16 9 0 14 5 12 12 -6 18 -28 21 -28 4z"/>
<path d="M1418 1893 c7 -3 16 -2 19 1 4 3 -2 6 -13 5 -11 0 -14 -3 -6 -6z"/>
<path d="M1712 1880 c0 -14 2 -19 5 -12 2 6 2 18 0 25 -3 6 -5 1 -5 -13z"/>
<path d="M1830 1887 c0 -8 7 -14 15 -14 8 0 15 6 15 14 0 7 -7 13 -15 13 -8 0
-15 -6 -15 -13z"/>
<path d="M7 1883 c-4 -3 -7 -25 -6 -47 0 -32 2 -37 9 -21 5 11 9 15 9 8 1 -17
36 -8 39 10 2 10 -2 17 -9 17 -7 0 -4 6 7 15 14 11 15 14 3 9 -10 -3 -20 -1
-24 5 -7 12 -19 14 -28 4z"/>
<path d="M615 1880 c3 -5 11 -10 16 -10 6 0 7 5 4 10 -3 6 -11 10 -16 10 -6 0
-7 -4 -4 -10z"/>
<path d="M3762 1878 c6 -18 28 -21 28 -4 0 9 -7 16 -16 16 -9 0 -14 -5 -12
-12z"/>
<path d="M1410 1860 c0 -5 7 -10 15 -10 8 0 15 5 15 10 0 6 -7 10 -15 10 -8 0
-15 -4 -15 -10z"/>
<path d="M1500 1860 c0 -5 7 -10 15 -10 8 0 15 5 15 10 0 6 -7 10 -15 10 -8 0
-15 -4 -15 -10z"/>
<path d="M1618 1863 c7 -3 16 -2 19 1 4 3 -2 6 -13 5 -11 0 -14 -3 -6 -6z"/>
<path d="M2848 1859 c-10 -5 -18 -18 -17 -27 0 -10 3 -12 6 -4 2 6 13 12 23
12 9 0 23 7 30 15 10 12 9 15 -6 15 -11 0 -27 -5 -36 -11z"/>
<path d="M3650 1856 c0 -9 7 -16 16 -16 17 0 14 22 -4 28 -7 2 -12 -3 -12 -12z"/>
<path d="M3720 1855 c0 -8 7 -15 15 -15 8 0 15 4 15 9 0 5 -7 11 -15 15 -9 3
-15 0 -15 -9z"/>
<path d="M188 1853 c12 -2 22 -11 22 -19 0 -8 10 -14 25 -14 14 0 25 5 25 11
0 5 5 7 10 4 6 -3 10 1 10 9 0 9 -7 16 -15 16 -8 0 -15 -4 -15 -8 0 -5 -7 -9
-15 -9 -8 0 -15 4 -15 9 0 4 -12 7 -27 7 -24 -2 -25 -2 -5 -6z"/>
<path d="M340 1830 c0 -5 5 -10 11 -10 5 0 7 5 4 10 -3 6 -8 10 -11 10 -2 0
-4 -4 -4 -10z"/>
<path d="M420 1829 c0 -5 5 -7 10 -4 6 3 10 8 10 11 0 2 -4 4 -10 4 -5 0 -10
-5 -10 -11z"/>
<path d="M1500 1830 c0 -5 7 -10 16 -10 8 0 12 5 9 10 -3 6 -10 10 -16 10 -5
0 -9 -4 -9 -10z"/>
<path d="M1610 1830 c0 -5 7 -10 15 -10 8 0 15 5 15 10 0 6 -7 10 -15 10 -8 0
-15 -4 -15 -10z"/>
<path d="M1665 1830 c-3 -5 -1 -18 4 -27 9 -16 10 -14 11 10 0 28 -5 34 -15
17z"/>
<path d="M1831 1814 c0 -11 3 -14 6 -6 3 7 2 16 -1 19 -3 4 -6 -2 -5 -13z"/>
<path d="M120 1774 c0 -45 24 -42 28 4 2 24 -1 32 -12 32 -12 0 -16 -10 -16
-36z"/>
<path d="M1580 1800 c0 -5 5 -10 11 -10 5 0 7 5 4 10 -3 6 -8 10 -11 10 -2 0
-4 -4 -4 -10z"/>
<path d="M1610 1800 c0 -5 7 -10 15 -10 8 0 15 5 15 10 0 6 -7 10 -15 10 -8 0
-15 -4 -15 -10z"/>
<path d="M3900 1796 c0 -11 47 -52 51 -44 1 2 2 15 3 31 2 23 -2 27 -26 27
-17 0 -28 -5 -28 -14z"/>
<path d="M80 1791 c0 -6 5 -13 10 -16 6 -3 10 1 10 9 0 9 -4 16 -10 16 -5 0
-10 -4 -10 -9z"/>
<path d="M170 1785 c0 -8 7 -15 15 -15 9 0 12 6 9 15 -4 8 -10 15 -15 15 -5 0
-9 -7 -9 -15z"/>
<path d="M340 1760 c0 -16 3 -30 8 -30 4 0 7 14 7 30 0 17 -3 30 -7 30 -5 0
-8 -13 -8 -30z"/>
<path d="M460 1779 c0 -5 5 -7 10 -4 6 3 10 8 10 11 0 2 -4 4 -10 4 -5 0 -10
-5 -10 -11z"/>
<path d="M535 1780 c3 -5 8 -10 11 -10 2 0 4 5 4 10 0 6 -5 10 -11 10 -5 0 -7
-4 -4 -10z"/>
<path d="M300 1748 c0 -16 5 -28 10 -28 13 0 13 20 0 40 -8 12 -10 9 -10 -12z"/>
<path d="M1830 1754 c0 -8 6 -11 15 -8 8 4 15 9 15 13 0 4 -7 8 -15 8 -8 0
-15 -6 -15 -13z"/>
<path d="M2400 1761 c0 -25 15 -41 38 -41 l25 0 -23 25 c-24 26 -40 32 -40 16z"/>
<path d="M495 1741 c-3 -5 -1 -12 5 -16 5 -3 10 1 10 9 0 18 -6 21 -15 7z"/>
<path d="M530 1740 c0 -5 5 -10 10 -10 6 0 10 5 10 10 0 6 -4 10 -10 10 -5 0
-10 -4 -10 -10z"/>
<path d="M3912 1730 c6 -19 68 -33 68 -15 0 8 -8 11 -20 8 -11 -3 -28 1 -37 8
-14 12 -16 12 -11 -1z"/>
<path d="M2419 1658 c-20 -27 -20 -31 -5 -25 10 4 26 7 37 7 14 0 19 7 19 25
0 35 -24 32 -51 -7z"/>
<path d="M2600 1670 c0 -19 3 -21 12 -12 9 9 9 15 0 24 -9 9 -12 7 -12 -12z"/>
<path d="M2370 1670 c0 -5 7 -10 16 -10 8 0 12 5 9 10 -3 6 -10 10 -16 10 -5
0 -9 -4 -9 -10z"/>
<path d="M2480 1660 c0 -16 7 -20 30 -20 34 0 36 3 14 24 -22 22 -44 20 -44
-4z"/>
<path d="M4047 1674 c-15 -15 -5 -22 38 -26 31 -2 45 1 45 9 0 7 -8 13 -17 13
-10 0 -27 3 -38 6 -11 3 -24 2 -28 -2z"/>
<path d="M4153 1673 c-21 -8 -15 -22 7 -16 11 3 20 9 20 14 0 10 -8 10 -27 2z"/>
<path d="M5945 1660 c3 -5 8 -10 11 -10 2 0 4 5 4 10 0 6 -5 10 -11 10 -5 0
-7 -4 -4 -10z"/>
<path d="M3456 1653 c-13 -13 -5 -33 14 -33 11 0 20 3 20 6 0 11 -28 33 -34
27z"/>
<path d="M3400 1640 c-9 -6 -10 -10 -3 -10 6 0 15 5 18 10 8 12 4 12 -15 0z"/>
<path d="M4080 1576 c0 -26 5 -36 21 -41 27 -9 29 -6 20 35 -10 50 -41 54 -41
6z"/>
<path d="M4260 1600 c0 -5 12 -10 28 -9 24 0 25 1 7 9 -27 12 -35 12 -35 0z"/>
<path d="M5240 1596 c0 -9 7 -16 16 -16 17 0 14 22 -4 28 -7 2 -12 -3 -12 -12z"/>
<path d="M3060 1568 c0 -43 11 -60 30 -48 8 6 30 10 48 10 38 0 40 23 3 28
-16 3 -20 8 -16 23 5 16 1 19 -29 19 -34 0 -36 -2 -36 -32z"/>
<path d="M6545 1590 c-3 -5 1 -10 10 -10 9 0 13 5 10 10 -3 6 -8 10 -10 10 -2
0 -7 -4 -10 -10z"/>
<path d="M6641 1579 c0 -14 -4 -47 -7 -71 -5 -39 -3 -49 16 -68 12 -12 18 -25
14 -28 -3 -4 -9 -1 -11 6 -3 6 -11 12 -18 12 -18 0 -45 39 -39 55 3 7 1 16 -5
20 -6 3 -11 15 -11 26 0 26 -18 24 -23 -3 l-4 -23 -2 23 c0 12 -5 22 -11 22
-17 0 -16 -105 1 -126 13 -16 -2 -26 -18 -13 -10 9 -13 8 -13 -5 0 -9 -6 -16
-12 -16 -20 1 -58 36 -58 54 0 9 -3 15 -7 15 -5 -1 -16 -1 -26 0 -16 1 -17 3
-3 16 8 8 19 15 25 15 6 0 11 11 11 25 0 28 -20 35 -20 8 -1 -16 -2 -16 -15 1
-19 25 -26 17 -32 -38 -4 -35 -2 -47 9 -51 10 -4 13 -15 10 -31 -4 -24 -8 -25
-61 -24 -119 3 -131 2 -131 -20 0 -29 -24 -24 -37 8 l-11 27 -1 -27 c-1 -17
-6 -26 -13 -23 -18 7 -42 -10 -34 -23 4 -6 23 -14 44 -17 74 -12 80 -15 86
-41 6 -21 9 -24 21 -14 8 7 15 19 15 26 0 8 10 14 24 14 14 0 37 5 51 10 23 9
215 20 330 20 82 -1 11 18 -96 25 -60 4 -109 11 -109 15 0 11 365 -3 408 -16
21 -6 22 -4 22 54 l0 60 -40 10 c-47 12 -57 6 -27 -19 30 -25 10 -24 -31 1
-27 17 -37 18 -48 9 -19 -16 -22 -11 -26 36 -3 40 -3 40 37 45 35 4 40 9 43
33 4 30 -14 38 -21 10 -4 -17 -5 -17 -6 0 -1 19 -21 24 -21 5 0 -9 -4 -8 -10
2 -8 12 -10 12 -11 -5 0 -20 0 -20 -8 0 -8 19 -8 19 -19 -2 -7 -12 -12 -30
-12 -40 -1 -11 -7 -4 -16 17 -11 26 -17 31 -23 21 -7 -11 -10 -10 -14 5 -3 14
-5 12 -6 -7z m-201 -229 c0 -5 -7 -10 -15 -10 -8 0 -15 5 -15 10 0 6 7 10 15
10 8 0 15 -4 15 -10z"/>
<path d="M2490 1580 c0 -5 5 -10 11 -10 5 0 7 5 4 10 -3 6 -8 10 -11 10 -2 0
-4 -4 -4 -10z"/>
<path d="M2519 1523 c-1 -36 -2 -36 -8 -9 -3 16 -11 31 -18 33 -9 3 -12 -25
-12 -102 0 -79 3 -105 11 -103 7 3 15 15 19 29 7 24 7 24 8 1 1 -19 6 -22 29
-19 l27 4 3 101 3 102 -31 0 c-28 0 -30 -3 -31 -37z m41 -24 c0 -6 -4 -7 -10
-4 -5 3 -10 11 -10 16 0 6 5 7 10 4 6 -3 10 -11 10 -16z m10 -33 c0 -16 -27
-29 -41 -20 -5 3 -9 -3 -9 -13 0 -15 -2 -16 -10 -3 -16 25 -11 38 18 43 15 2
30 5 35 6 4 0 7 -5 7 -13z"/>
<path d="M5883 1479 c8 -100 19 -115 84 -116 71 -2 83 14 83 107 0 91 1 90
-102 90 l-71 0 6 -81z"/>
<path d="M6090 1534 c0 -19 6 -34 15 -38 20 -7 20 24 0 50 -14 18 -14 17 -15
-12z"/>
<path d="M3445 1541 c-3 -5 -1 -12 4 -15 5 -3 11 1 15 9 6 16 -9 21 -19 6z"/>
<path d="M3866 1535 c4 -8 10 -15 15 -15 4 0 6 7 3 15 -4 8 -10 15 -15 15 -4
0 -6 -7 -3 -15z"/>
<path d="M4530 1538 c0 -7 5 -20 10 -28 8 -12 10 -11 10 7 0 12 -4 25 -10 28
-5 3 -10 0 -10 -7z"/>
<path d="M4280 1530 c0 -5 5 -10 11 -10 5 0 7 5 4 10 -3 6 -8 10 -11 10 -2 0
-4 -4 -4 -10z"/>
<path d="M5115 1530 c3 -5 11 -10 16 -10 6 0 7 5 4 10 -3 6 -11 10 -16 10 -6
0 -7 -4 -4 -10z"/>
<path d="M6159 1525 c-6 -29 2 -105 11 -105 15 0 19 60 6 92 -11 25 -15 28
-17 13z"/>
<path d="M6260 1522 c0 -10 11 -29 25 -42 14 -13 25 -34 25 -47 0 -14 6 -23
15 -23 18 0 21 50 3 50 -8 0 -6 5 4 10 14 9 15 16 6 40 -12 37 -24 38 -32 5
-8 -30 -26 -34 -26 -6 0 11 -4 23 -10 26 -5 3 -10 -2 -10 -13z"/>
<path d="M6480 1540 c-1 -3 -4 -19 -6 -37 -4 -26 -2 -31 13 -28 10 1 17 7 16
11 -3 17 -22 59 -23 54z"/>
<path d="M6220 1515 c0 -8 5 -15 10 -15 6 0 10 7 10 15 0 8 -4 15 -10 15 -5 0
-10 -7 -10 -15z"/>
<path d="M3300 1510 c0 -5 5 -10 10 -10 6 0 10 5 10 10 0 6 -4 10 -10 10 -5 0
-10 -4 -10 -10z"/>
<path d="M6744 1509 c-3 -6 -1 -16 5 -22 8 -8 11 -5 11 11 0 24 -5 28 -16 11z"/>
<path d="M6810 1511 c0 -6 5 -13 10 -16 6 -3 10 1 10 9 0 9 -4 16 -10 16 -5 0
-10 -4 -10 -9z"/>
<path d="M5601 1494 c0 -11 3 -14 6 -6 3 7 2 16 -1 19 -3 4 -6 -2 -5 -13z"/>
<path d="M550 1490 c0 -5 7 -10 15 -10 8 0 15 5 15 10 0 6 -7 10 -15 10 -8 0
-15 -4 -15 -10z"/>
<path d="M2970 1456 c0 -28 5 -46 14 -49 20 -8 22 -3 18 42 -6 58 -32 64 -32
7z"/>
<path d="M3019 1496 c-3 -3 -3 -23 -1 -45 6 -59 32 -56 32 4 0 31 -4 45 -13
45 -8 0 -16 -2 -18 -4z"/>
<path d="M3090 1485 c0 -8 5 -15 10 -15 6 0 10 7 10 15 0 8 -4 15 -10 15 -5 0
-10 -7 -10 -15z"/>
<path d="M177 1484 c-9 -10 2 -24 19 -24 8 0 14 7 14 15 0 15 -21 21 -33 9z"/>
<path d="M5458 1483 c7 -3 16 -2 19 1 4 3 -2 6 -13 5 -11 0 -14 -3 -6 -6z"/>
<path d="M5632 1468 c3 -7 12 -14 21 -16 12 -2 15 1 11 12 -7 19 -38 22 -32 4z"/>
<path d="M2237 1450 c3 -11 7 -20 9 -20 2 0 4 9 4 20 0 11 -4 20 -9 20 -5 0
-7 -9 -4 -20z"/>
<path d="M646 1426 c-25 -46 -19 -82 14 -78 43 4 50 10 50 44 -1 33 -19 68
-36 68 -5 0 -18 -15 -28 -34z"/>
<path d="M2207 1439 c4 -13 9 -17 15 -11 11 11 3 32 -12 32 -4 0 -6 -9 -3 -21z"/>
<path d="M3181 1444 c0 -11 3 -14 6 -6 3 7 2 16 -1 19 -3 4 -6 -2 -5 -13z"/>
<path d="M6475 1449 c-4 -6 -4 -13 -1 -16 8 -8 36 5 36 17 0 13 -27 13 -35 -1z"/>
<path d="M6220 1430 c0 -11 5 -20 10 -20 6 0 10 9 10 20 0 11 -4 20 -10 20 -5
0 -10 -9 -10 -20z"/>
<path d="M6260 1430 c0 -11 5 -20 10 -20 6 0 10 9 10 20 0 11 -4 20 -10 20 -5
0 -10 -9 -10 -20z"/>
<path d="M720 1400 c0 -37 11 -52 24 -31 8 13 -5 71 -15 71 -5 0 -9 -18 -9
-40z"/>
<path d="M5706 1425 c4 -8 10 -15 15 -15 4 0 6 7 3 15 -4 8 -10 15 -15 15 -4
0 -6 -7 -3 -15z"/>
<path d="M4750 1410 c0 -11 5 -20 10 -20 6 0 10 9 10 20 0 11 -4 20 -10 20 -5
0 -10 -9 -10 -20z"/>
<path d="M1775 1410 c-3 -5 1 -10 10 -10 9 0 13 5 10 10 -3 6 -8 10 -10 10 -2
0 -7 -4 -10 -10z"/>
<path d="M5491 1388 c-1 -25 -6 -29 -42 -34 l-41 -7 32 -20 c20 -13 47 -20 71
-19 21 1 39 -2 39 -6 0 -8 59 -36 65 -31 3 4 8 104 6 127 -1 9 -8 11 -23 6
-13 -4 -31 -7 -40 -6 -9 0 -22 -5 -28 -13 -9 -11 -7 -16 8 -24 11 -6 22 -7 26
-4 3 3 6 -1 6 -11 0 -9 -4 -14 -10 -11 -5 3 -10 1 -10 -4 0 -24 -16 -8 -37 37
-19 41 -22 44 -22 20z m109 -73 c0 -19 -2 -35 -4 -35 -2 0 -6 16 -8 35 -2 19
0 35 4 35 4 0 8 -16 8 -35z"/>
<path d="M2590 1386 c0 -9 5 -16 10 -16 6 0 10 4 10 9 0 6 -4 13 -10 16 -5 3
-10 -1 -10 -9z"/>
<path d="M5290 1375 c0 -9 9 -15 25 -15 28 0 34 15 9 24 -25 10 -34 7 -34 -9z"/>
<path d="M5726 1381 c-3 -5 1 -11 9 -15 9 -3 15 0 15 9 0 16 -16 20 -24 6z"/>
<path d="M1900 1355 c-30 -13 -109 -45 -175 -70 -133 -52 -159 -64 -152 -71 4
-5 305 114 382 151 51 23 4 15 -55 -10z"/>
<path d="M6105 1370 c-3 -5 -1 -10 4 -10 6 0 11 5 11 10 0 6 -2 10 -4 10 -3 0
-8 -4 -11 -10z"/>
<path d="M4871 1348 c0 -13 4 -41 8 -63 9 -40 9 -40 10 17 0 31 -3 60 -9 63
-6 3 -10 -4 -9 -17z"/>
<path d="M80 1350 c0 -5 5 -10 10 -10 6 0 10 5 10 10 0 6 -4 10 -10 10 -5 0
-10 -4 -10 -10z"/>
<path d="M2807 1353 c-13 -12 -7 -33 8 -33 8 0 15 9 15 20 0 20 -11 26 -23 13z"/>
<path d="M1745 1340 c-3 -5 1 -10 9 -10 8 0 18 5 21 10 3 6 -1 10 -9 10 -8 0
-18 -4 -21 -10z"/>
<path d="M4900 1313 c0 -21 4 -49 8 -63 6 -21 8 -17 12 25 l6 50 11 -65 10
-65 2 55 c2 69 21 49 21 -23 0 -27 4 -46 9 -42 5 3 10 30 10 61 0 47 -4 57
-20 61 -10 3 -19 9 -19 14 0 5 -7 9 -15 9 -8 0 -15 5 -15 10 0 6 -4 10 -10 10
-5 0 -10 -17 -10 -37z"/>
<path d="M5381 1334 c0 -11 3 -14 6 -6 3 7 2 16 -1 19 -3 4 -6 -2 -5 -13z"/>
<path d="M5667 1330 c3 -11 7 -20 9 -20 2 0 4 9 4 20 0 11 -4 20 -9 20 -5 0
-7 -9 -4 -20z"/>
<path d="M806 1332 c7 -4 14 -18 15 -32 3 -20 11 -26 42 -31 25 -4 41 -2 48 7
6 8 15 11 20 8 13 -8 49 15 49 31 0 10 -10 15 -30 15 -23 0 -31 -5 -36 -25 -8
-31 -24 -28 -42 8 -10 21 -20 27 -45 27 -18 0 -27 -4 -21 -8z"/>
<path d="M6810 1330 c0 -5 5 -10 11 -10 5 0 7 5 4 10 -3 6 -8 10 -11 10 -2 0
-4 -4 -4 -10z"/>
<path d="M328 1293 c7 -3 16 -2 19 1 4 3 -2 6 -13 5 -11 0 -14 -3 -6 -6z"/>
<path d="M415 1290 c3 -5 8 -10 11 -10 2 0 4 5 4 10 0 6 -5 10 -11 10 -5 0 -7
-4 -4 -10z"/>
<path d="M766 1291 c-4 -7 -5 -15 -2 -18 9 -9 19 4 14 18 -4 11 -6 11 -12 0z"/>
<path d="M1444 1265 c-7 -19 -14 -41 -14 -49 0 -8 -5 -18 -10 -21 -6 -3 -7
-17 -4 -31 6 -22 3 -24 -27 -26 -19 -1 -43 -1 -54 -1 -11 1 -28 -10 -39 -24
l-18 -25 99 5 c55 2 108 9 119 16 16 10 14 11 -13 6 -32 -6 -33 -6 -33 29 0
24 7 42 21 54 30 25 40 48 33 77 -9 38 -42 33 -60 -10z"/>
<path d="M1590 1279 c-19 -11 -27 -18 -17 -15 10 3 24 6 31 6 7 0 21 7 32 15
30 22 -4 18 -46 -6z"/>
<path d="M6860 1276 c0 -31 6 -34 13 -6 3 11 1 23 -4 26 -5 3 -9 -6 -9 -20z"/>
<path d="M1083 1274 c-5 -12 -7 -13 -14 -3 -4 8 -11 11 -14 7 -5 -5 27 -82 41
-97 7 -7 34 21 34 36 0 10 -6 12 -19 8 -11 -3 -22 -2 -24 3 -9 13 9 35 22 28
6 -4 11 -1 11 7 0 21 -30 30 -37 11z"/>
<path d="M1357 1255 c-17 -35 -47 -48 -47 -20 0 23 -13 18 -33 -12 l-18 -28 6
28 c8 39 -6 33 -34 -15 -23 -40 -23 -42 -5 -55 24 -18 32 -16 39 7 6 19 8 19
38 4 21 -11 28 -12 20 -3 -21 22 -15 29 26 29 38 0 40 1 38 33 0 17 3 40 7 50
16 34 -20 17 -37 -18z"/>
<path d="M2230 1279 c0 -5 5 -7 10 -4 6 3 10 8 10 11 0 2 -4 4 -10 4 -5 0 -10
-5 -10 -11z"/>
<path d="M5001 1243 c1 -80 17 -98 18 -20 1 38 -3 67 -9 67 -5 0 -10 -21 -9
-47z"/>
<path d="M2484 1256 c-8 -20 -1 -47 11 -49 6 -1 11 13 13 31 3 32 -14 45 -24
18z"/>
<path d="M2590 1255 c0 -8 5 -15 10 -15 6 0 10 7 10 15 0 8 -4 15 -10 15 -5 0
-10 -7 -10 -15z"/>
<path d="M5034 1248 c3 -13 6 -44 6 -70 0 -27 5 -48 10 -48 6 0 10 30 10 70 0
58 -3 70 -16 70 -12 0 -15 -6 -10 -22z"/>
<path d="M1970 1241 c0 -11 4 -22 9 -25 5 -3 9 6 9 19 0 14 -4 25 -9 25 -5 0
-9 -9 -9 -19z"/>
<path d="M5073 1214 c4 -22 7 -57 7 -78 0 -28 3 -37 11 -29 15 15 7 135 -10
141 -11 4 -13 -3 -8 -34z"/>
<path d="M5693 1240 c-43 -17 -21 -40 38 -40 32 0 35 6 15 33 -15 19 -21 20
-53 7z"/>
<path d="M1894 1226 c-3 -8 -4 -23 -2 -33 3 -11 6 -6 9 15 6 34 2 42 -7 18z"/>
<path d="M1932 1220 c0 -14 2 -19 5 -12 2 6 2 18 0 25 -3 6 -5 1 -5 -13z"/>
<path d="M5113 1194 c4 -22 7 -56 7 -76 0 -21 5 -38 10 -38 17 0 8 142 -9 148
-11 4 -13 -3 -8 -34z"/>
<path d="M4882 1185 c0 -16 2 -22 5 -12 2 9 2 23 0 30 -3 6 -5 -1 -5 -18z"/>
<path d="M6235 1200 c3 -5 8 -10 11 -10 2 0 4 5 4 10 0 6 -5 10 -11 10 -5 0
-7 -4 -4 -10z"/>
<path d="M6425 1186 c-23 -35 -10 -48 41 -44 l38 3 -30 34 -31 35 -18 -28z"/>
<path d="M1840 1173 c0 -14 3 -23 7 -19 10 10 11 46 1 46 -4 0 -8 -12 -8 -27z"/>
<path d="M4912 1165 c0 -16 2 -22 5 -12 2 9 2 23 0 30 -3 6 -5 -1 -5 -18z"/>
<path d="M4942 1145 c0 -16 2 -22 5 -12 2 9 2 23 0 30 -3 6 -5 -1 -5 -18z"/>
<path d="M6866 1157 c3 -10 9 -15 12 -12 3 3 0 11 -7 18 -10 9 -11 8 -5 -6z"/>
<path d="M536 1120 c-30 -31 -46 -38 -46 -20 0 6 -62 10 -165 10 -103 0 -165
-4 -165 -10 0 -5 -13 -10 -29 -10 -17 0 -33 5 -36 10 -9 15 -95 13 -95 -2 0
-16 46 -38 78 -38 13 0 20 -4 17 -10 -3 -5 -26 -10 -51 -10 -40 0 -44 -2 -44
-25 0 -24 2 -25 73 -26 39 0 252 -2 472 -4 220 -1 418 -3 439 -4 61 -2 30 -21
-40 -25 -32 -1 -67 -7 -78 -11 -11 -5 -26 -3 -38 4 -21 13 -148 13 -148 0 0
-12 -33 -11 -45 0 -17 15 -155 23 -153 9 2 -6 -6 -13 -17 -15 -19 -3 -19 -3
-1 5 31 13 8 18 -83 17 -56 -1 -86 -5 -89 -13 -5 -17 -32 -15 -32 2 0 11 -18
14 -87 14 -49 -1 -82 -3 -75 -5 16 -6 5 -23 -15 -23 -8 0 -13 6 -10 13 3 8 -8
13 -34 15 l-39 2 1 -49 c1 -43 5 -50 23 -53 28 -4 27 -22 -1 -26 -22 -3 -23
-7 -23 -123 l0 -119 38 6 c20 3 42 5 47 4 6 -1 136 -4 289 -6 221 -4 281 -2
288 8 6 10 8 10 8 1 0 -18 161 -18 178 -1 10 10 15 10 20 1 4 -7 42 -12 97
-14 50 -1 95 -6 101 -11 7 -5 14 -3 18 7 3 10 -1 15 -13 15 -10 0 -24 7 -31
15 -8 9 -22 12 -41 8 -25 -5 -29 -2 -29 16 0 14 6 21 20 21 11 0 20 5 20 10 0
6 0 13 0 17 0 4 -14 7 -32 7 -50 1 -48 26 2 26 39 0 42 2 36 23 -3 12 -6 34
-6 50 0 26 -2 27 -54 27 l-54 0 -4 -45 c-2 -25 0 -55 4 -65 4 -11 4 -20 -1
-20 -4 0 -6 -13 -3 -30 3 -21 0 -30 -9 -31 -8 0 -27 -2 -42 -3 -24 -1 -28 1
-25 24 2 14 7 28 13 33 7 4 6 10 -1 15 -7 4 -12 27 -12 52 0 25 -1 52 -1 60
-1 12 -12 14 -58 10 l-58 -5 3 -32 c3 -26 0 -33 -15 -33 -15 0 -16 -2 -3 -10
13 -9 13 -11 0 -20 -10 -7 -11 -12 -4 -17 18 -13 11 -67 -9 -75 -35 -15 -85 9
-57 27 6 3 10 33 10 65 0 32 4 62 10 65 6 4 3 13 -8 24 -12 13 -30 17 -60 16
-23 -1 -45 -5 -48 -7 -2 -3 -5 -22 -6 -42 -1 -42 26 -81 41 -58 5 9 17 11 34
6 46 -11 30 -24 -29 -24 -55 0 -56 -1 -51 -26 3 -18 1 -24 -9 -20 -8 3 -14 -1
-14 -9 0 -9 -10 -15 -25 -15 -28 0 -33 20 -10 44 18 17 20 40 3 30 -6 -4 -40
-6 -75 -5 l-63 2 0 -36 c0 -20 -4 -34 -9 -31 -5 4 -11 2 -13 -4 -1 -5 -13 -7
-25 -4 -18 5 -23 13 -23 40 0 20 -5 34 -12 34 -9 0 -9 3 0 12 7 7 12 36 12 65
l0 54 -57 -3 -58 -3 -1 -38 c-1 -20 -4 -41 -8 -44 -4 -4 -6 19 -4 52 l3 60 61
-3 c55 -3 62 -2 67 17 3 13 13 21 26 21 18 0 21 -7 22 -42 2 -30 3 -35 6 -16
l4 28 74 -5 c63 -4 74 -3 69 10 -4 10 0 15 14 15 13 0 22 -8 25 -22 4 -20 4
-20 6 4 0 15 6 30 13 34 8 5 9 2 5 -10 -8 -19 -1 -22 64 -31 42 -5 47 -4 52
16 5 17 11 20 28 16 13 -4 30 -1 38 6 12 10 14 8 9 -10 -7 -27 9 -34 70 -31
29 1 42 6 42 16 0 10 8 13 29 10 23 -3 32 1 40 16 9 19 10 17 10 -11 1 -33 1
-33 54 -33 58 1 82 21 89 76 3 31 18 42 57 43 17 1 22 -3 17 -15 -6 -15 -4
-15 10 -3 14 11 18 11 30 -6 8 -10 14 -13 14 -7 0 7 7 12 15 12 8 0 15 -7 15
-15 0 -8 -9 -15 -20 -15 -14 0 -20 -7 -20 -24 0 -19 4 -23 20 -19 14 4 21 -1
26 -22 7 -26 -1 -193 -9 -202 -8 -8 -36 9 -40 25 -4 14 -5 14 -6 -2 -1 -12 -6
-16 -16 -12 -25 9 -18 -40 8 -59 20 -14 22 -14 25 0 2 8 7 15 10 16 8 1 100 6
147 9 17 1 25 4 19 6 -8 3 -10 52 -7 163 l4 158 -38 7 c-21 3 -55 6 -75 6 -41
0 -54 24 -18 33 14 4 18 10 14 22 -5 13 -9 14 -15 3 -7 -10 -9 -8 -10 7 -1 11
-1 28 -1 38 2 17 -15 17 -66 1 -22 -7 -62 7 -62 22 0 17 -12 18 -26 4 -7 -7
-51 -10 -110 -8 -86 3 -99 5 -96 20 3 18 -31 34 -48 23 -6 -4 -8 -15 -5 -25 5
-16 -2 -17 -97 -14 -97 3 -103 4 -101 23 4 29 -17 26 -51 -9z m-73 -60 c-3
-12 -14 -20 -27 -20 -20 0 -20 1 4 20 14 11 26 20 27 20 0 0 -1 -9 -4 -20z
m601 0 c75 14 124 7 107 -14 -7 -8 -40 -13 -99 -13 -92 -1 -130 9 -102 26 9 7
17 6 21 0 4 -7 28 -6 73 1z m-424 -10 c0 -5 -5 -10 -11 -10 -5 0 -7 5 -4 10 3
6 8 10 11 10 2 0 4 -4 4 -10z m-540 -178 c0 -4 -9 -8 -20 -9 -22 -2 -27 13 -7
20 14 5 27 -1 27 -11z m-7 -37 c11 -10 15 -39 16 -104 1 -49 -2 -92 -6 -94
-15 -8 -74 14 -67 24 4 8 9 7 15 -2 6 -9 9 6 10 41 0 30 2 64 3 75 1 11 3 32
4 48 2 31 5 33 25 12z m674 -57 c-3 -7 -5 -2 -5 12 0 14 2 19 5 13 2 -7 2 -19
0 -25z m193 3 c0 -24 -3 -28 -20 -24 -24 6 -24 8 -2 32 22 25 22 26 22 -8z
m-384 -18 c-11 -11 -19 6 -11 24 8 17 8 17 12 0 3 -10 2 -21 -1 -24z m-419
-35 c-3 -8 -6 -5 -6 6 -1 11 2 17 5 13 3 -3 4 -12 1 -19z m63 -8 c0 -5 -9 -10
-20 -10 -11 0 -20 5 -20 10 0 6 9 10 20 10 11 0 20 -4 20 -10z m560 0 c0 -5
-9 -10 -20 -10 -11 0 -20 5 -20 10 0 6 9 10 20 10 11 0 20 -4 20 -10z m-13
-72 c-3 -7 -5 -2 -5 12 0 14 2 19 5 13 2 -7 2 -19 0 -25z m190 -5 c-3 -10 -5
-4 -5 12 0 17 2 24 5 18 2 -7 2 -21 0 -30z m-377 7 c0 -5 -5 -10 -11 -10 -5 0
-7 5 -4 10 3 6 8 10 11 10 2 0 4 -4 4 -10z"/>
<path d="M4971 1138 c1 -7 5 -24 9 -38 7 -22 8 -21 9 13 1 20 -3 37 -9 37 -5
0 -10 -6 -9 -12z"/>
<path d="M1886 1131 c-4 -6 -2 -11 3 -11 6 0 11 -8 12 -17 0 -10 3 -13 5 -6 8
18 -11 49 -20 34z"/>
<path d="M1241 1099 c5 -11 14 -17 20 -14 15 10 10 22 -11 28 -17 4 -18 2 -9
-14z"/>
<path d="M1623 1080 c0 -25 2 -35 4 -22 2 12 2 32 0 45 -2 12 -4 2 -4 -23z"/>
<path d="M5013 1060 c0 -36 2 -50 4 -32 2 17 2 47 0 65 -2 17 -4 3 -4 -33z"/>
<path d="M5321 1078 c2 -66 14 -143 23 -143 12 0 15 147 3 163 -16 21 -27 13
-26 -20z"/>
<path d="M4911 1084 c0 -11 3 -14 6 -6 3 7 2 16 -1 19 -3 4 -6 -2 -5 -13z"/>
<path d="M4941 1084 c0 -11 3 -14 6 -6 3 7 2 16 -1 19 -3 4 -6 -2 -5 -13z"/>
<path d="M5047 1033 c8 -91 13 -92 13 -5 0 40 -4 72 -10 72 -5 0 -7 -27 -3
-67z"/>
<path d="M5086 1008 c9 -95 14 -99 14 -10 0 39 -5 74 -10 77 -7 4 -8 -18 -4
-67z"/>
<path d="M5382 993 c7 -103 5 -93 18 -93 7 0 10 32 8 87 -2 69 -6 88 -18 91
-13 2 -14 -10 -8 -85z"/>
<path d="M4982 1045 c0 -16 2 -22 5 -12 2 9 2 23 0 30 -3 6 -5 -1 -5 -18z"/>
<path d="M1557 1043 c-8 -33 -7 -282 2 -287 4 -3 16 0 25 7 15 11 16 16 3 40
-8 15 -17 24 -20 20 -4 -3 -3 7 2 23 4 16 6 48 5 72 -2 29 1 40 8 36 7 -4 8
-3 4 4 -4 6 -2 21 4 33 14 26 5 69 -15 69 -7 0 -16 -8 -18 -17z"/>
<path d="M4880 1035 c1 -26 2 -28 11 -12 8 14 8 22 0 30 -8 8 -11 3 -11 -18z"/>
<path d="M5120 1026 c0 -14 5 -28 10 -31 6 -4 10 7 10 24 0 17 -4 31 -10 31
-5 0 -10 -11 -10 -24z"/>
<path d="M5439 1043 c-4 -37 8 -170 18 -185 13 -22 20 9 19 87 -1 71 -4 88
-19 96 -9 6 -17 6 -18 2z"/>
<path d="M4912 1016 c1 -13 6 -22 10 -20 11 7 10 32 -2 39 -6 3 -9 -4 -8 -19z"/>
<path d="M5520 1025 c0 -8 -5 -15 -11 -15 -10 0 -6 -118 7 -177 10 -51 23 -18
26 65 l3 87 48 6 c27 3 50 2 52 -2 3 -3 28 -9 57 -12 29 -3 64 -9 77 -13 19
-6 22 -4 19 12 -5 28 -62 44 -148 40 -51 -3 -84 1 -102 10 -25 13 -28 13 -28
-1z"/>
<path d="M1494 1022 c-14 -9 -17 -172 -4 -172 6 0 10 8 10 18 0 10 3 22 7 26
8 8 13 35 18 94 3 41 -6 51 -31 34z"/>
<path d="M5170 941 c0 -45 4 -81 9 -81 12 0 11 149 0 156 -5 3 -9 -31 -9 -75z"/>
<path d="M5916 1013 c-3 -4 -6 -17 -6 -30 0 -16 6 -23 20 -23 14 0 20 7 20 24
0 23 -22 41 -34 29z"/>
<path d="M5992 1008 c-15 -15 -2 -48 19 -48 13 0 19 7 19 24 0 26 -22 40 -38
24z"/>
<path d="M6376 1013 c-3 -4 -6 -17 -6 -30 0 -16 6 -23 20 -23 14 0 20 7 20 24
0 23 -22 41 -34 29z"/>
<path d="M6524 1005 c-9 -23 3 -45 24 -45 15 0 18 5 15 24 -6 29 -31 42 -39
21z"/>
<path d="M6607 1014 c-4 -4 -7 -18 -7 -31 0 -17 6 -23 21 -23 16 0 20 5 17 27
-3 26 -18 39 -31 27z"/>
<path d="M6686 1013 c-3 -4 -6 -17 -6 -30 0 -16 6 -23 20 -23 14 0 20 7 20 24
0 23 -22 41 -34 29z"/>
<path d="M6755 1010 c-10 -16 5 -50 21 -50 20 0 29 27 14 45 -14 17 -26 19
-35 5z"/>
<path d="M6837 1014 c-16 -17 -7 -53 16 -57 12 -2 -13 -5 -55 -6 l-78 -1 0
-40 c0 -27 5 -42 18 -49 14 -8 15 -12 5 -22 -7 -7 -13 -32 -13 -56 0 -36 3
-43 20 -43 18 0 19 7 19 91 0 51 4 96 9 101 5 5 22 8 38 6 26 -3 29 -8 32 -40
2 -21 7 -38 12 -38 5 0 15 -3 24 -6 13 -5 16 2 16 45 0 28 -4 51 -10 51 -5 0
-13 14 -18 32 -8 32 -22 44 -35 32z"/>
<path d="M1800 975 c0 -19 5 -35 11 -35 8 0 8 -4 2 -12 -19 -24 -25 -68 -10
-68 9 0 17 17 21 46 10 76 8 104 -9 104 -10 0 -15 -11 -15 -35z"/>
<path d="M4940 986 c0 -14 5 -28 10 -31 6 -4 10 7 10 24 0 17 -4 31 -10 31 -5
0 -10 -11 -10 -24z"/>
<path d="M5832 985 c2 -18 8 -25 24 -25 17 0 20 5 16 25 -3 16 -11 25 -23 25
-14 0 -18 -6 -17 -25z"/>
<path d="M6060 1001 c0 -23 14 -41 30 -41 12 0 17 6 15 18 -2 9 -4 20 -4 25
-1 10 -41 9 -41 -2z"/>
<path d="M6140 985 c0 -18 5 -25 20 -25 15 0 20 7 20 25 0 18 -5 25 -20 25
-15 0 -20 -7 -20 -25z"/>
<path d="M6210 1002 c0 -24 14 -42 32 -42 29 0 20 44 -9 48 -13 2 -23 -1 -23
-6z"/>
<path d="M6290 985 c0 -18 5 -25 20 -25 15 0 20 7 20 25 0 18 -5 25 -20 25
-15 0 -20 -7 -20 -25z"/>
<path d="M6448 1004 c-12 -11 5 -44 23 -44 14 0 19 7 19 25 0 18 -5 25 -18 25
-10 0 -21 -3 -24 -6z"/>
<path d="M1423 989 c-21 -8 -22 -13 -22 -159 -1 -83 1 -156 4 -161 4 -5 20 -2
38 8 18 9 26 18 20 20 -7 3 -13 11 -13 19 0 8 -9 14 -20 14 -16 0 -19 5 -15
28 2 15 6 48 9 73 3 26 13 63 22 82 22 46 10 89 -23 76z"/>
<path d="M5133 930 c0 -25 2 -35 4 -22 2 12 2 32 0 45 -2 12 -4 2 -4 -23z"/>
<path d="M5575 938 c4 -18 14 -42 21 -53 8 -11 14 -43 14 -71 0 -49 2 -53 31
-63 18 -6 56 -11 85 -11 l54 0 0 105 0 105 -89 0 c-50 0 -93 5 -96 10 -14 23
-26 9 -20 -22z"/>
<path d="M5810 905 c0 -38 3 -45 20 -45 26 0 26 -17 -1 -25 -17 -6 -20 -12
-15 -37 3 -17 6 -37 6 -44 0 -8 9 -14 20 -14 19 0 20 7 20 105 l0 105 -25 0
c-23 0 -25 -4 -25 -45z"/>
<path d="M5930 936 c5 -5 10 -23 10 -38 0 -22 7 -31 28 -40 26 -11 26 -12 5
-15 -20 -4 -23 -10 -23 -54 0 -48 1 -49 30 -49 l30 0 0 105 0 106 -45 -2 c-31
-2 -42 -6 -35 -13z"/>
<path d="M6040 905 c0 -33 4 -45 15 -45 8 0 15 -4 15 -9 0 -5 -7 -11 -15 -15
-10 -4 -15 -20 -15 -51 0 -42 2 -45 26 -45 25 0 26 2 23 58 -1 31 -1 76 -1 99
2 37 5 42 30 46 15 2 3 5 -25 6 l-53 1 0 -45z"/>
<path d="M6158 938 c7 -7 12 -26 12 -44 0 -24 5 -33 23 -38 l22 -7 -22 -9
c-18 -7 -21 -16 -19 -52 2 -34 6 -44 22 -47 10 -2 25 -8 32 -13 9 -8 12 14 12
106 l0 116 -47 0 c-37 0 -44 -3 -35 -12z"/>
<path d="M6270 906 c0 -33 4 -46 18 -51 16 -6 16 -7 0 -16 -13 -7 -18 -23 -18
-54 0 -41 2 -45 24 -45 23 0 23 1 22 98 l-1 97 30 3 c33 4 55 -18 55 -54 0
-14 8 -24 23 -28 l22 -7 -22 -9 c-19 -8 -23 -17 -23 -55 0 -38 3 -45 19 -45
11 0 27 -3 36 -6 14 -6 15 6 13 102 l-3 109 -97 3 -98 3 0 -45z"/>
<path d="M6495 908 c4 -24 14 -48 23 -54 13 -10 13 -12 -2 -17 -11 -5 -16 -19
-16 -52 0 -38 3 -45 20 -45 18 0 20 8 22 98 l3 97 35 0 c32 0 35 -3 38 -32 2
-21 11 -37 24 -44 19 -10 20 -12 5 -21 -12 -6 -17 -22 -17 -52 0 -41 2 -44 30
-48 17 -3 33 -2 35 1 2 4 1 52 -2 109 l-6 102 -99 0 -100 0 7 -42z"/>
<path d="M4947 920 c-3 -11 -1 -23 4 -26 5 -3 9 6 9 20 0 31 -6 34 -13 6z"/>
<path d="M1126 901 c-4 -7 -5 -15 -2 -18 9 -9 19 4 14 18 -4 11 -6 11 -12 0z"/>
<path d="M5334 863 c3 -27 7 -67 8 -90 4 -78 17 -44 17 41 0 66 -4 86 -16 90
-12 5 -14 -1 -9 -41z"/>
<path d="M1619 867 c-3 -20 -2 -42 2 -48 10 -16 16 22 9 56 l-6 30 -5 -38z"/>
<path d="M5390 833 c0 -51 16 -65 25 -22 5 22 3 36 -9 47 -15 15 -16 13 -16
-25z"/>
<path d="M329 836 c0 -1 -3 -19 -5 -41 -3 -22 -10 -43 -17 -47 -7 -4 15 -8 49
-8 33 0 65 -5 72 -12 9 -9 12 -8 12 4 0 9 6 18 13 21 9 3 9 7 -1 19 -7 9 -12
20 -11 24 7 39 -1 45 -56 43 -30 -1 -55 -3 -56 -3z"/>
<path d="M6855 830 c-4 -6 -4 -29 0 -50 5 -30 11 -40 26 -40 16 0 19 7 19 50
0 43 -3 50 -19 50 -11 0 -23 -5 -26 -10z"/>
<path d="M1487 823 c-4 -7 -7 -37 -6 -67 l2 -54 24 15 c17 11 20 19 13 28 -5
6 -7 15 -3 18 3 4 1 7 -5 7 -6 0 -12 15 -14 33 -2 20 -6 28 -11 20z"/>
<path d="M5453 765 c4 -38 7 -85 7 -102 0 -18 5 -33 10 -33 6 0 10 36 10 89 0
70 -3 91 -17 102 -15 13 -16 9 -10 -56z"/>
<path d="M301 794 c0 -11 3 -14 6 -6 3 7 2 16 -1 19 -3 4 -6 -2 -5 -13z"/>
<path d="M5522 685 c2 -65 7 -100 15 -102 18 -6 15 173 -4 188 -12 10 -13 -3
-11 -86z"/>
<path d="M2710 761 c0 -6 5 -13 10 -16 6 -3 10 1 10 9 0 9 -4 16 -10 16 -5 0
-10 -4 -10 -9z"/>
<path d="M5400 726 c0 -25 5 -46 10 -46 6 0 10 18 10 39 0 22 -4 43 -10 46 -6
4 -10 -12 -10 -39z"/>
<path d="M1152 730 c0 -14 2 -19 5 -12 2 6 2 18 0 25 -3 6 -5 1 -5 -13z"/>
<path d="M5595 708 c4 -13 12 -60 18 -105 12 -95 18 -100 112 -105 l60 -3 0
105 0 105 -68 -3 c-48 -2 -74 2 -90 13 -30 21 -41 19 -32 -7z"/>
<path d="M5972 703 c-20 -4 -23 -9 -20 -46 2 -35 7 -43 26 -45 30 -5 28 -22
-4 -22 -24 0 -25 -2 -20 -42 2 -24 5 -46 5 -50 1 -5 15 -8 32 -8 l32 0 -6 68
c-4 37 -7 86 -7 110 0 23 -3 41 -7 41 -5 -1 -18 -4 -31 -6z"/>
<path d="M6195 703 c-17 -3 -20 -10 -17 -48 3 -36 8 -45 23 -45 10 0 19 -4 19
-10 0 -5 -9 -10 -20 -10 -17 0 -20 -7 -20 -49 0 -47 1 -49 30 -53 17 -3 33 -2
35 2 9 15 -8 220 -19 219 -6 -1 -20 -4 -31 -6z"/>
<path d="M6423 703 c-18 -3 -23 -11 -23 -33 0 -41 10 -60 31 -60 10 0 19 -4
19 -10 0 -5 -9 -10 -20 -10 -17 0 -20 -7 -20 -49 0 -47 1 -49 31 -53 35 -5 42
5 35 48 -2 16 -5 62 -5 102 -1 75 -1 74 -48 65z"/>
<path d="M6648 703 c-13 -3 -18 -15 -18 -44 0 -34 4 -41 28 -51 l27 -11 -25
-6 c-25 -7 -26 -11 -21 -83 1 -12 9 -18 26 -18 16 0 25 -6 25 -15 0 -9 -9 -15
-25 -15 -23 0 -25 -3 -25 -50 0 -43 3 -50 20 -50 11 0 20 -4 20 -10 0 -5 -9
-10 -20 -10 -16 0 -20 -7 -20 -32 0 -54 10 -76 38 -83 15 -4 21 -10 15 -12 -7
-3 -13 -14 -14 -26 0 -21 -1 -21 -9 -2 -5 11 -9 15 -9 9 -1 -7 -18 -14 -38
-17 -31 -4 -42 0 -60 19 -27 27 -28 34 -8 34 8 0 13 6 10 13 -2 6 -6 54 -9
105 -6 100 -9 112 -32 112 -20 0 -20 -88 1 -96 19 -8 19 -24 0 -24 -13 0 -14
-18 -10 -124 4 -85 2 -127 -6 -131 -7 -5 -10 6 -9 31 1 22 1 41 0 44 -5 14
-12 86 -18 185 l-7 110 -30 0 c-28 0 -30 -3 -33 -43 -3 -38 0 -43 25 -54 25
-10 26 -12 8 -16 -33 -7 -38 -18 -31 -67 6 -37 12 -48 33 -56 17 -6 23 -14 19
-25 -3 -9 -6 -22 -6 -30 0 -10 -5 -12 -12 -7 -7 4 -43 8 -80 9 -79 1 -85 -6
-80 -103 l3 -63 104 0 c98 0 105 1 105 20 0 11 4 20 9 20 5 0 8 -8 7 -17 -1
-17 15 -18 192 -21 l192 -2 0 90 c0 81 -9 112 -23 78 -3 -8 -6 -5 -6 5 -1 11
-6 15 -12 11 -8 -4 -7 0 1 15 6 12 18 25 26 28 21 8 20 113 -1 113 -12 0 -15
-13 -15 -60 l0 -60 -30 0 c-21 0 -30 -5 -30 -16 0 -9 -5 -12 -12 -8 -7 5 -8 3
-3 -6 6 -10 11 -9 21 5 8 10 17 15 21 11 11 -11 -27 -36 -54 -36 -20 0 -22 2
-11 25 6 14 15 25 20 25 5 0 6 11 2 24 -3 14 -9 67 -12 118 -6 77 -10 93 -24
96 -15 3 -18 -4 -18 -47 0 -39 4 -51 15 -51 8 0 15 -4 15 -10 0 -5 -7 -10 -15
-10 -11 0 -15 -11 -15 -37 0 -51 10 -84 22 -76 6 3 9 0 6 -8 -8 -25 -33 -20
-45 8 -7 17 -15 118 -19 256 -7 243 -5 234 -56 220z m89 -590 c-3 -10 -5 -2
-5 17 0 19 2 27 5 18 2 -10 2 -26 0 -35z m5 -56 c93 0 128 -3 132 -13 6 -17
-115 -18 -127 -1 -7 9 -10 9 -14 0 -6 -17 -53 -17 -53 0 0 8 -4 7 -10 -3 -9
-13 -10 -13 -10 0 0 10 -3 11 -8 4 -4 -7 -26 -12 -49 -12 -36 -1 -43 2 -43 19
0 16 5 18 28 13 15 -3 84 -6 154 -7z"/>
<path d="M6867 703 c-4 -3 -7 -26 -7 -50 0 -36 3 -43 20 -43 17 0 20 7 20 50
0 35 -4 50 -13 50 -8 0 -17 -3 -20 -7z"/>
<path d="M301 684 c0 -11 3 -14 6 -6 3 7 2 16 -1 19 -3 4 -6 -2 -5 -13z"/>
<path d="M5820 654 c0 -41 2 -45 23 -42 12 2 21 6 20 11 -2 4 -3 23 -3 42 0
28 -4 35 -20 35 -17 0 -20 -7 -20 -46z"/>
<path d="M6050 656 c0 -35 4 -45 20 -49 18 -5 20 0 20 44 0 42 -3 49 -20 49
-17 0 -20 -7 -20 -44z"/>
<path d="M6270 671 c0 -39 9 -61 26 -61 8 0 14 -4 14 -10 0 -5 -7 -10 -15 -10
-11 0 -15 -12 -15 -50 0 -43 3 -50 20 -50 19 0 20 7 20 105 l0 105 -25 0 c-21
0 -25 -5 -25 -29z"/>
<path d="M6500 660 c0 -30 5 -42 22 -51 22 -12 22 -12 2 -19 -16 -6 -19 -15
-16 -54 3 -37 8 -46 23 -46 17 0 19 9 19 105 l0 105 -25 0 c-22 0 -25 -4 -25
-40z"/>
<path d="M6730 660 c0 -27 5 -42 18 -49 16 -9 16 -11 -1 -23 -26 -20 -14 -98
16 -98 19 0 20 4 13 77 -3 42 -6 89 -6 105 0 21 -5 28 -20 28 -17 0 -20 -7
-20 -40z"/>
<path d="M1512 674 c-12 -8 -22 -19 -22 -25 0 -15 26 -10 43 9 30 33 17 43
-21 16z"/>
<path d="M2601 664 c0 -11 3 -14 6 -6 3 7 2 16 -1 19 -3 4 -6 -2 -5 -13z"/>
<path d="M2670 658 c0 -9 -6 -18 -12 -21 -9 -3 -10 -8 -3 -16 15 -15 36 21 24
40 -7 11 -9 11 -9 -3z"/>
<path d="M1360 640 c0 -5 4 -10 9 -10 6 0 13 5 16 10 3 6 -1 10 -9 10 -9 0
-16 -4 -16 -10z"/>
<path d="M2592 620 c0 -14 2 -19 5 -12 2 6 2 18 0 25 -3 6 -5 1 -5 -13z"/>
<path d="M45 590 c-3 -5 -15 -10 -26 -10 -18 0 -19 -10 -19 -290 l0 -290 31 0
c26 0 29 3 24 20 -5 16 -2 20 14 20 14 0 21 -6 21 -20 0 -18 7 -20 70 -20 39
0 70 4 70 10 0 5 7 7 15 4 14 -6 19 5 16 34 -1 6 3 12 8 12 5 0 11 -12 13 -27
3 -28 4 -28 82 -31 75 -3 78 -2 73 18 -7 27 19 27 35 0 11 -17 24 -20 75 -20
34 0 74 6 89 12 22 10 28 10 32 0 2 -8 26 -12 67 -12 55 0 68 4 92 26 l28 25
8 -25 c8 -25 12 -26 78 -26 48 0 69 4 69 13 0 9 3 8 9 -2 6 -9 11 -10 15 -2 9
14 46 15 46 1 0 -5 5 -10 10 -10 6 0 10 15 10 33 0 18 6 39 12 45 10 10 10 15
-1 21 -8 5 -11 16 -6 30 11 35 25 24 25 -19 0 -22 4 -40 9 -40 6 0 12 -17 14
-37 2 -21 4 1 5 49 2 68 6 90 20 104 16 17 17 13 20 -84 l3 -102 65 0 65 0 -1
218 -1 217 25 -3 c32 -3 35 15 4 20 -15 2 -24 11 -26 24 -10 71 -132 78 -132
8 0 -25 -21 -45 -28 -25 -3 8 -8 9 -17 1 -8 -7 -10 -22 -6 -48 4 -20 4 -53 0
-72 -4 -19 -6 -53 -3 -75 4 -34 1 -43 -21 -58 -28 -20 -85 -29 -105 -17 -8 5
-12 32 -12 78 0 68 -1 71 -21 64 -12 -4 -39 -7 -59 -7 l-38 1 0 -49 c0 -29 -4
-46 -10 -42 -6 4 -10 -7 -10 -24 0 -24 -4 -31 -20 -31 -26 0 -40 36 -40 101 0
32 4 49 13 49 9 0 9 2 -1 9 -8 5 -12 25 -10 59 3 44 6 52 23 52 17 0 17 2 5
10 -13 8 -13 10 2 10 9 0 20 -4 23 -10 10 -16 25 -12 25 6 0 15 9 16 70 11 57
-5 70 -3 70 9 0 8 -4 14 -10 14 -5 0 -10 7 -10 15 0 8 5 15 10 15 6 0 1 10
-10 22 -17 18 -30 22 -71 20 -63 -3 -71 -7 -67 -40 3 -23 -1 -27 -24 -30 -35
-4 -39 24 -5 31 l22 4 -22 2 c-27 1 -29 8 -6 33 15 17 15 18 0 18 -10 0 -17
-5 -17 -11 0 -6 -16 -10 -37 -9 -101 5 -103 4 -103 -40 0 -45 1 -44 -37 -29
l-28 11 30 14 c26 12 27 13 8 14 -25 0 -30 19 -11 38 9 9 8 12 -5 12 -9 0 -17
-4 -17 -8 0 -5 -27 -9 -61 -9 -64 0 -84 -12 -73 -45 6 -20 -8 -30 -30 -22 -21
8 -20 24 2 24 16 1 16 1 -1 11 -12 7 -16 17 -12 30 4 11 2 19 -4 19 -6 0 -11
-4 -11 -9 0 -6 -23 -7 -53 -4 -60 6 -89 -11 -80 -47 5 -17 0 -20 -26 -20 -21
0 -31 5 -31 15 0 8 6 12 14 9 8 -3 17 -1 21 5 3 7 -2 11 -15 11 -18 0 -19 3
-10 20 9 16 8 20 -5 20 -8 0 -15 -3 -15 -7 0 -5 -24 -7 -53 -5 -39 3 -57 0
-66 -12 -8 -9 -22 -16 -32 -16 -11 0 -19 -4 -19 -8 0 -5 10 -8 21 -8 12 1 24
-5 26 -11 3 -9 -6 -13 -27 -13 l-33 0 5 45 c6 46 4 53 -7 35z m522 -72 c-3 -8
-6 -5 -6 6 -1 11 2 17 5 13 3 -3 4 -12 1 -19z m190 0 c-3 -8 -6 -5 -6 6 -1 11
2 17 5 13 3 -3 4 -12 1 -19z m194 -11 c-8 -8 -11 -7 -11 4 0 20 13 34 18 19 3
-7 -1 -17 -7 -23z m-151 -37 c0 -5 -25 -10 -56 -10 -34 0 -53 4 -49 10 3 6 28
10 56 10 27 0 49 -4 49 -10z m-120 -25 c0 -14 5 -25 10 -25 6 0 10 -15 10 -34
0 -30 3 -33 28 -34 58 0 72 -2 72 -10 0 -5 -21 -10 -46 -11 -59 -2 -61 -3 -57
-43 3 -43 -25 -100 -43 -84 -8 7 -9 17 -3 28 12 23 -7 33 -20 11 -8 -13 -10
15 -11 102 0 70 4 114 9 107 7 -12 11 -11 22 2 20 22 29 19 29 -9z m-572 2 c6
-5 12 -26 12 -48 0 -30 4 -39 18 -40 9 0 33 -2 52 -3 19 -1 41 2 48 7 8 6 12
6 12 -1 0 -16 -39 -26 -89 -23 -43 3 -44 3 -39 -28 3 -19 -1 -36 -9 -42 -7 -6
-13 -27 -13 -46 0 -28 -3 -33 -13 -24 -10 8 -17 7 -25 -1 -9 -9 -12 -5 -12 19
0 17 6 33 13 36 10 4 10 7 -1 18 -17 18 -15 66 3 73 16 6 21 56 6 56 -4 0 -6
-11 -3 -25 2 -14 0 -25 -6 -25 -12 0 -19 42 -13 83 3 21 8 27 25 24 11 -1 27
-6 34 -10z m385 -3 c19 -7 25 -74 6 -74 -5 0 -8 -4 -5 -9 3 -5 22 -8 42 -6 20
2 45 0 57 -4 l22 -8 -22 -7 c-12 -4 -33 -4 -47 0 -16 4 -32 1 -41 -6 -12 -10
-15 -9 -15 4 0 11 -8 15 -25 14 -26 -2 -32 -21 -15 -48 8 -12 10 -11 10 8 0
12 5 22 11 22 6 0 9 -26 8 -70 -2 -67 -3 -69 -26 -68 -21 2 -24 7 -23 43 1 22
1 78 0 124 0 83 9 108 35 96 6 -3 18 -8 28 -11z m-179 -19 c3 -13 3 -31 0 -40
-8 -21 11 -34 51 -36 27 -1 25 -3 -13 -12 -40 -9 -43 -12 -37 -38 5 -20 1 -34
-10 -45 -18 -19 -24 -16 -30 17 -16 82 -17 89 -6 89 6 0 11 17 11 38 l0 37
-20 -25 -19 -25 2 31 c2 27 6 30 34 31 25 1 33 -4 37 -22z m-127 -27 c-3 -8
-6 -5 -6 6 -1 11 2 17 5 13 3 -3 4 -12 1 -19z m379 -15 c-11 -11 -17 4 -9 23
7 18 8 18 11 1 2 -10 1 -21 -2 -24z m191 0 c-3 -10 -5 -4 -5 12 0 17 2 24 5
18 2 -7 2 -21 0 -30z m448 -101 c-6 -62 -9 -69 -26 -65 -16 4 -19 15 -19 58 0
29 3 67 6 85 7 31 7 32 27 12 17 -18 18 -28 12 -90z m-950 38 c3 -5 1 -10 -4
-10 -6 0 -11 5 -11 10 0 6 2 10 4 10 3 0 8 -4 11 -10z m692 -42 c-3 -8 -6 -5
-6 6 -1 11 2 17 5 13 3 -3 4 -12 1 -19z m-444 -29 c-9 -9 -12 -7 -10 9 1 14 5
18 11 12 7 -7 6 -14 -1 -21z m-240 -39 c-3 -11 -9 -20 -14 -20 -5 0 -9 9 -9
20 0 11 6 20 14 20 9 0 12 -7 9 -20z m24 -12 c-3 -7 -5 -2 -5 12 0 14 2 19 5
13 2 -7 2 -19 0 -25z m-130 16 c-3 -3 -12 -4 -19 -1 -8 3 -5 6 6 6 11 1 17 -2
13 -5z m773 -14 c-19 -13 -30 -13 -30 0 0 6 10 10 23 10 18 0 19 -2 7 -10z
m-460 -80 c0 -5 -5 -10 -11 -10 -5 0 -7 5 -4 10 3 6 8 10 11 10 2 0 4 -4 4
-10z m387 -42 c-3 -8 -6 -5 -6 6 -1 11 2 17 5 13 3 -3 4 -12 1 -19z m-387 -4
c0 -8 -5 -12 -10 -9 -6 4 -8 11 -5 16 9 14 15 11 15 -7z m582 -6 c-7 -7 -12
-8 -12 -2 0 14 12 26 19 19 2 -3 -1 -11 -7 -17z m23 -27 c-3 -6 -14 -11 -23
-11 -13 0 -13 2 4 14 21 15 30 14 19 -3z m-405 5 c0 -3 -4 -8 -10 -11 -5 -3
-10 -1 -10 4 0 6 5 11 10 11 6 0 10 -2 10 -4z"/>
<path d="M638 325 c2 -14 8 -25 13 -25 5 0 9 11 9 25 0 14 -6 25 -14 25 -9 0
-12 -8 -8 -25z"/>
<path d="M455 400 c-3 -5 -1 -10 4 -10 6 0 11 5 11 10 0 6 -2 10 -4 10 -3 0
-8 -4 -11 -10z"/>
<path d="M445 371 c-3 -5 -1 -12 5 -16 5 -3 10 1 10 9 0 18 -6 21 -15 7z"/>
<path d="M446 265 c-3 -8 -1 -15 3 -15 5 0 11 7 15 15 3 8 1 15 -3 15 -5 0
-11 -7 -15 -15z"/>
<path d="M5822 543 c3 -41 6 -48 26 -51 22 -3 23 -1 20 45 -3 41 -6 48 -26 51
-22 3 -23 1 -20 -45z"/>
<path d="M6050 539 c0 -47 2 -50 23 -47 12 2 22 9 21 16 -1 6 -2 28 -2 47 -2
28 -6 35 -22 35 -17 0 -20 -7 -20 -51z"/>
<path d="M6864 576 c-11 -29 1 -81 19 -84 14 -3 17 4 17 47 0 39 -4 51 -15 51
-9 0 -18 -6 -21 -14z"/>
<path d="M1418 538 c-9 -16 -13 -88 -14 -243 -1 -121 1 -190 3 -152 3 50 8 67
18 67 18 0 20 17 3 22 -12 4 -12 67 0 166 1 6 8 12 16 12 19 0 27 82 9 93 -8
5 -11 17 -7 33 8 31 -11 32 -28 2z"/>
<path d="M1057 503 c-8 -14 -8 -160 -1 -200 7 -35 8 -36 15 -13 18 65 6 249
-14 213z"/>
<path d="M2540 490 c0 -5 5 -10 10 -10 6 0 10 5 10 10 0 6 -4 10 -10 10 -5 0
-10 -4 -10 -10z"/>
<path d="M890 446 c-5 -5 -5 -16 1 -28 6 -12 6 -24 0 -37 -15 -26 -5 -31 61
-31 l58 0 0 53 0 54 -55 -1 c-31 -1 -60 -5 -65 -10z m70 -45 c0 -6 -4 -13 -10
-16 -5 -3 -10 1 -10 9 0 9 5 16 10 16 6 0 10 -4 10 -9z"/>
<path d="M5825 449 c-11 -17 5 -79 20 -79 7 0 16 -6 18 -12 3 -7 6 13 6 45 1
50 -1 57 -18 57 -11 0 -23 -5 -26 -11z"/>
<path d="M5960 414 c0 -37 4 -47 20 -51 26 -7 26 -23 -1 -23 -18 0 -20 -5 -17
-52 3 -45 6 -53 24 -56 17 -2 21 -10 20 -36 -1 -27 -5 -32 -23 -30 -12 1 -26
5 -32 8 -5 4 -12 2 -15 -3 -4 -5 -28 -9 -55 -7 l-48 2 -2 -83 -2 -83 104 0
c91 0 105 2 109 18 2 9 1 64 -3 122 -4 58 -11 153 -15 213 l-7 107 -28 0 c-28
0 -29 -2 -29 -46z"/>
<path d="M6057 454 c-4 -4 -7 -25 -7 -47 0 -30 4 -40 20 -44 25 -7 26 -19 0
-26 -16 -4 -18 -11 -14 -43 8 -56 12 -64 29 -64 23 0 18 223 -5 228 -9 1 -19
0 -23 -4z"/>
<path d="M6184 446 c-3 -8 -4 -29 -2 -48 2 -25 8 -34 26 -36 27 -4 29 -22 2
-22 -18 0 -20 -7 -20 -55 0 -52 1 -55 25 -55 18 0 25 -5 25 -20 0 -11 -4 -20
-10 -20 -5 0 -10 -7 -10 -15 0 -10 -10 -15 -30 -15 -22 0 -30 5 -30 17 0 15
-1 15 -13 -1 -10 -14 -23 -17 -45 -14 -38 5 -42 -2 -42 -93 l0 -69 104 0 c60
0 106 4 108 10 2 5 0 60 -4 122 -4 62 -10 161 -14 221 l-7 107 -29 0 c-16 0
-31 -6 -34 -14z"/>
<path d="M6280 416 c0 -37 4 -48 22 -57 l22 -12 -23 -9 c-22 -8 -23 -12 -16
-56 4 -26 8 -59 9 -74 1 -20 4 -24 14 -16 7 6 11 17 8 25 -3 8 -1 11 4 8 6 -3
10 -14 11 -23 0 -14 2 -14 6 -2 3 8 11 18 17 22 7 5 4 8 -6 8 -15 0 -18 14
-20 113 -3 108 -4 112 -25 115 -21 3 -23 -1 -23 -42z"/>
<path d="M6867 453 c-9 -18 6 -93 19 -93 10 0 14 14 14 50 0 37 -4 50 -14 50
-8 0 -17 -3 -19 -7z"/>
<path d="M2385 410 c-9 -17 -13 -35 -10 -40 6 -10 55 -7 55 3 -1 42 -3 51 -7
35 -5 -21 -19 -23 -29 -6 -4 7 -3 8 4 4 8 -5 12 0 12 13 0 29 -7 26 -25 -9z"/>
<path d="M2520 411 c0 -25 6 -27 13 -6 4 8 2 17 -3 20 -6 4 -10 -3 -10 -14z"/>
<path d="M1116 354 c-4 -9 -4 -19 -1 -22 2 -3 7 3 11 12 4 9 4 19 1 22 -2 3
-7 -3 -11 -12z"/>
<path d="M5830 290 c0 -27 2 -50 4 -50 2 0 11 -3 20 -6 13 -5 16 3 16 50 0 49
-2 56 -20 56 -17 0 -20 -7 -20 -50z"/>
<path d="M2412 295 c0 -16 2 -22 5 -12 2 9 2 23 0 30 -3 6 -5 -1 -5 -18z"/>
<path d="M2344 284 c3 -9 6 -22 6 -30 0 -9 5 -12 10 -9 17 10 12 55 -6 55 -11
0 -14 -5 -10 -16z"/>
<path d="M3221 274 c0 -11 3 -14 6 -6 3 7 2 16 -1 19 -3 4 -6 -2 -5 -13z"/>
<path d="M3143 245 c0 -22 2 -30 4 -17 2 12 2 30 0 40 -3 9 -5 -1 -4 -23z"/>
<path d="M3161 264 c0 -11 3 -14 6 -6 3 7 2 16 -1 19 -3 4 -6 -2 -5 -13z"/>
<path d="M2280 246 c0 -13 5 -28 10 -31 6 -3 10 3 10 14 0 12 0 24 1 28 0 4
-4 9 -10 11 -6 2 -11 -8 -11 -22z"/>
<path d="M830 240 c0 -5 5 -10 10 -10 6 0 10 5 10 10 0 6 -4 10 -10 10 -5 0
-10 -4 -10 -10z"/>
<path d="M1055 231 c-3 -5 -1 -12 5 -16 5 -3 10 1 10 9 0 18 -6 21 -15 7z"/>
<path d="M6360 202 c0 -5 7 -9 15 -9 8 0 15 4 15 9 0 4 -7 8 -15 8 -8 0 -15
-4 -15 -8z"/>
<path d="M6417 199 c7 -7 15 -10 18 -7 3 3 -2 9 -12 12 -14 6 -15 5 -6 -5z"/>
<path d="M6880 200 c0 -5 5 -10 10 -10 6 0 10 5 10 10 0 6 -4 10 -10 10 -5 0
-10 -4 -10 -10z"/>
<path d="M3111 154 c0 -11 3 -14 6 -6 3 7 2 16 -1 19 -3 4 -6 -2 -5 -13z"/>
<path d="M2345 110 c-3 -5 -2 -10 4 -10 5 0 13 5 16 10 3 6 2 10 -4 10 -5 0
-13 -4 -16 -10z"/>
<path d="M3070 101 c0 -12 6 -21 15 -21 8 0 15 4 15 9 0 5 -7 14 -15 21 -13
10 -15 9 -15 -9z"/>
<path d="M2400 106 c0 -2 7 -9 15 -16 13 -11 14 -10 9 4 -5 14 -24 23 -24 12z"/>
<path d="M3173 84 c-3 -8 -1 -20 6 -27 8 -8 11 -4 11 16 0 30 -7 35 -17 11z"/>
<path d="M3116 31 c-5 -7 1 -11 16 -12 13 0 56 -4 96 -8 56 -5 72 -4 72 6 0 8
-12 13 -29 13 -15 0 -55 3 -88 6 -40 4 -63 3 -67 -5z"/>
</g>
</svg>
